<?xml version="1.0" encoding="UTF-8"?>
<svg class="css-1j8o68f" width="464.4" height="117.67" viewBox="0 0 369.91 93.728" xmlns="http://www.w3.org/2000/svg">
<defs>
<linearGradient id="a">
<stop stop-color="#0df" style="--darkreader-inline-stopcolor:#00b1cc" data-darkreader-inline-stopcolor="" offset="0"/>
<stop stop-color="#ff00d4" style="--darkreader-inline-stopcolor:#cc00aa" data-darkreader-inline-stopcolor="" offset="1"/>
</linearGradient>
</defs>
<g transform="matrix(1.2681 0 0 1.2681 -2.5362 6.4638)" fill="url(#a)" featurekey="odWo6G-0">
<title xmlns="http://www.w3.org/2000/svg">racing-car-meter-speeding</title>
<path d="M32,2A30,30,0,1,0,62,32,30.034,30.034,0,0,0,32,2Zm0,58A28,28,0,1,1,60,32,28.032,28.032,0,0,1,32,60Z" xmlns="http://www.w3.org/2000/svg"></path>
<path d="M32,6A26,26,0,1,0,58,32,26.029,26.029,0,0,0,32,6Zm0,50A24,24,0,1,1,56,32,24.028,24.028,0,0,1,32,56Z" xmlns="http://www.w3.org/2000/svg"></path>
<rect x="9" y="31" width="4" height="2" xmlns="http://www.w3.org/2000/svg"/>
<rect x="51" y="31" width="4" height="2" xmlns="http://www.w3.org/2000/svg"/>
<rect transform="translate(-19.397 12.598) rotate(-29.995)" x="11.813" y="41.5" width="4.001" height="2" xmlns="http://www.w3.org/2000/svg"/>
<rect transform="translate(-4.027 27.969) rotate(-29.995)" x="48.186" y="20.5" width="4.001" height="2" xmlns="http://www.w3.org/2000/svg"/>
<rect transform="translate(-11.713 22.715) rotate(-60.005)" x="12.813" y="19.5" width="2" height="4.001" xmlns="http://www.w3.org/2000/svg"/>
<rect transform="translate(-11.711 64.719) rotate(-60.005)" x="49.186" y="40.5" width="2" height="4.001" xmlns="http://www.w3.org/2000/svg"/>
<rect transform="translate(-4.026 12.598) rotate(-29.995)" x="20.5" y="11.813" width="2" height="4.001" xmlns="http://www.w3.org/2000/svg"/>
<rect x="31" y="9" width="2" height="4" xmlns="http://www.w3.org/2000/svg"/>
<rect transform="translate(9.29 43.716) rotate(-60.005)" x="40.5" y="12.813" width="4.001" height="2" xmlns="http://www.w3.org/2000/svg"/>
<rect transform="translate(-17.209 30.443) rotate(-75)" x="10.233" y="24.935" width="2" height="3" xmlns="http://www.w3.org/2000/svg"/>
<rect transform="translate(2.825 78.812) rotate(-75)" x="51.767" y="36.065" width="2" height="3" xmlns="http://www.w3.org/2000/svg"/>
<rect transform="translate(-6.957 16.797) rotate(-45)" x="15.797" y="15.297" width="2" height="3" xmlns="http://www.w3.org/2000/svg"/>
<rect transform="translate(-2.007 7.225) rotate(-15)" x="25.435" y="9.733" width="2" height="3" xmlns="http://www.w3.org/2000/svg"/>
<rect transform="translate(16.992 44.611) rotate(-75)" x="36.065" y="10.233" width="3" height="2" xmlns="http://www.w3.org/2000/svg"/>
<rect transform="translate(1.948 38.297) rotate(-45)" x="45.703" y="15.797" width="3" height="2" xmlns="http://www.w3.org/2000/svg"/>
<rect transform="translate(-5.044 14.558) rotate(-15)" x="51.267" y="25.435" width="3" height="2" xmlns="http://www.w3.org/2000/svg"/>
<rect transform="translate(-9.34 4.187) rotate(-15)" x="9.733" y="36.565" width="3" height="2" xmlns="http://www.w3.org/2000/svg"/>
<path d="M48.465,36.249A17,17,0,1,0,17.275,40.5a1,1,0,0,0,1.731-1,15,15,0,1,1,27.521-3.748,1,1,0,1,0,1.938.5Z" xmlns="http://www.w3.org/2000/svg"></path>
<path d="M35.633,30.226a.931.931,0,0,0-.093-.05,3.989,3.989,0,1,0-3.78,5.8l13.9,4.965A.983.983,0,0,0,46,41a1,1,0,0,0,.633-1.774ZM30,32a2,2,0,1,1,2,2A2,2,0,0,1,30,32Zm4.725,2.912a3.976,3.976,0,0,0,1.134-1.917L40.9,37.114Z" xmlns="http://www.w3.org/2000/svg"></path>
<path d="m36 42h-8a5 5 0 0 0 0 10h8a5 5 0 0 0 0-10zm0 8h-8a3 3 0 0 1 0-6h8a3 3 0 0 1 0 6z" xmlns="http://www.w3.org/2000/svg"/>
<path d="m30 46h-2a1 1 0 0 0 0 2h2a1 1 0 0 0 0-2z" xmlns="http://www.w3.org/2000/svg"/>
<path d="m36 46h-2a1 1 0 0 0 0 2h2a1 1 0 0 0 0-2z" xmlns="http://www.w3.org/2000/svg"/>
</g>
<g transform="matrix(5.0272 0 0 5.0272 98.14 -32.463)" fill="url(#a)" featurekey="VGK2BT-0">
<path d="m8.34 15.5c0-0.04-0.02-0.06-0.04-0.06 0 0.04 0 0.06 0.04 0.06-0.04 0.16 0.04 0.28 0 0.5h-0.06c0 0.06 0.02 0.22-0.08 0.22 0.1 0.26-0.12 0.54-0.14 0.82h-0.08c0.06 0.04 0.04 0.22-0.06 0.28 0.02 0.18-0.06 0.28-0.08 0.44-0.06 0.24-0.22 0.48-0.32 0.72-0.12 0.34-0.2 0.68-0.36 1.02h-0.1c0.02 0.02 0.02 0.04 0.04 0.06-0.76 1.7-1.72 3.1-3.1 4.14-0.12 0.02-0.16-0.04-0.22 0-0.22 0.18-0.64 0.16-0.92 0.18-0.7-0.3-1.34-0.7-1.6-1.38 0.1-0.02 0.04 0.12 0.14 0.08 0.04-0.14-0.14-0.34-0.06-0.52-0.16-0.1-0.02-0.3-0.14-0.46 0.02 0 0.06-0.02 0.06-0.04s-0.04-0.02-0.06-0.04c0.02-0.36-0.1-0.86 0.02-1.1-0.06 0.02-0.04 0-0.1 0.02 0.04 0.4 0 0.72-0.04 1.22 0.02-0.02 0.02-0.02 0.02-0.06 0.02 0.24 0.12 0.64 0.16 0.88-0.28-0.44-0.2-1.14-0.34-1.58 0.02-0.02 0.02-0.12 0.04-0.16-0.12-0.8 0.06-1.58 0.2-2.22-0.16-0.08-0.38-0.32-0.5-0.26-0.22-0.2-0.46-0.38-0.6-0.64 0.02-0.02 0-0.04 0 0-0.02 0-0.02-0.02-0.04-0.02-0.02-0.06 0.04-0.06 0.06-0.08-0.06-0.14-0.16-0.16-0.08-0.32-0.02-0.06-0.06 0.04-0.12 0 0-0.06 0.04-0.08-0.02-0.1 0-0.02 0.04-0.02 0.06-0.02 0-0.22-0.1-0.52-0.04-0.74 0.08-0.02 0.04 0.08 0.02 0.08 0.08 0 0.06-0.08 0.1-0.12h0.02c0 0.06 0 0.08 0.04 0.1 0.02 0 0-0.12-0.04-0.1 0.02-0.08-0.08-0.04-0.04-0.1 0.02-0.02 0-0.04 0 0-0.08 0-0.02 0.16-0.14 0.1 0-0.14 0.06-0.22 0-0.32h0.06c-0.02-0.04-0.06-0.08-0.02-0.12 0.08-0.04 0 0.1 0.1 0.08v0.02c0.02 0 0-0.02 0-0.02 0-0.08-0.04-0.06 0-0.1 0.04 0.02 0.04 0.08 0.08 0.1 0.02-0.02 0-0.04 0-0.08 0 0 0.02 0.02 0.04 0.02 0 0.02 0.02 0.02 0.04 0.02 0-0.06-0.02-0.02-0.04-0.02-0.04-0.1-0.04-0.18 0.06-0.22 0-0.02-0.02-0.02-0.02-0.04-0.06-0.02-0.06 0.06-0.08 0.1-0.06 0-0.02-0.1-0.06-0.1-0.02 0-0.04 0.02-0.08 0.02 0.02 0.02 0.06 0.02 0.06 0.08-0.16-0.04-0.04-0.16-0.08-0.26 0.08 0 0.04 0.1 0.14 0.08 0.08-0.06-0.04-0.1-0.04-0.16 0.1 0.02 0.08-0.2 0.12-0.3-0.18 0.04-0.06 0.22-0.14 0.3-0.08-0.14 0.06-0.2 0-0.3 0.08 0 0.1-0.02 0.12-0.08-0.04-0.06-0.1 0.08-0.18 0.08-0.04 0.14 0 0.32-0.12 0.46 0.06 0.44-0.1 0.8 0.04 1.22h-0.06c0.08 0.1-0.04 0.32 0.1 0.44 0 0.06 0.04 0.1 0.02 0.16-0.06-0.02-0.04-0.16-0.12-0.18-0.06-0.5-0.28-0.98-0.18-1.44 0.22-1.94 1.08-3.62 2.06-5.02 0.4-0.7 0.96-1.24 1.48-1.82 0.04 0 0.04-0.04 0.08-0.02 0.18-0.24 0.46-0.5 0.76-0.54 0.04 0.06-0.06 0.18-0.1 0.28 0.08 0 0.08 0.02 0.18 0-0.04 0.14-0.28 0.12-0.3 0.32h-0.08c0.04 0.08 0 0.06 0.04 0.12 0.12-0.02 0.1-0.18 0.22-0.18-0.04-0.12 0.12-0.16 0.18-0.22 0.06-0.08-0.12-0.12-0.02-0.16 0.04 0.12 0.18-0.02 0.22-0.1-0.06-0.02-0.08 0.12-0.22 0.1 0.12-0.14 0.28-0.24 0.36-0.42-0.04 0.02-0.08 0.04-0.16 0.04 0.1-0.16 0.26-0.08 0.38-0.18 1.7-0.32 3.04 0.6 3.48 1.96 0.08 0.02 0.04 0.12 0.12 0.12-0.02 0.16 0.1 0.18 0.08 0.36 0.42 1.04 0.34 2.2 0.36 3.26-0.02 0-0.04 0-0.04 0.02-0.04 0.08 0.04 0.06 0.04 0.08 0.02 0.08-0.04 0.08-0.08 0.12 0.02 0.36-0.08 0.78-0.16 1.22-0.04 0.14-0.1 0.4-0.14 0.42zm-3.82-7.32c0.04 0.02 0.08-0.06 0.02-0.06 0 0.04-0.04 0.02-0.02 0.06zm0.14 0.1v-0.04c-0.04-0.06-0.12 0.06 0 0.04zm-2 6.58c0.02 0 0.02-0.02 0.02-0.02 0.14-0.2 0.32-0.36 0.4-0.64 0.24-0.2 0.52-0.56 0.94-0.56 0.12-0.08 0.28-0.1 0.4-0.08 0.06 0.22 0.14 0.44 0.2 0.62-0.1 0.14-0.34 0.18-0.44 0.32-0.84 0.52-1.22 1.7-1.66 2.5-0.02 0.22-0.08 0.26-0.16 0.42-0.04 0.34-0.18 0.5-0.24 0.82 1.16-0.24 2.34-0.7 3.28-1.28 0 0.04 0 0.08 0.04 0.08 0.04-0.04 0.1-0.1 0.16-0.08-0.06 0.06-0.06 0.16-0.18 0.14 0-0.02-0.02 0 0 0-0.16 0.2-0.38 0.34-0.58 0.48-0.04 0 0 0.02 0 0 0.06 0.02 0.08-0.06 0.1 0-0.1 0.1-0.24 0.14-0.32 0.24 0.08 0.02 0.2 0.02 0.24 0.02-0.14 0.06-0.26 0.22-0.42 0.2-0.16 0.2-0.48 0.2-0.68 0.32-0.12-0.02-0.26-0.02-0.36 0.06 0.06 0.1 0.08-0.06 0.12 0-0.4 0.3-1.16 0.36-1.56 0.4-0.06 0.18-0.02 0.3-0.14 0.44 0.02 0.06 0.02 0.08 0.02 0.16 0 0.06-0.06 0.06-0.06 0.1 0.06 0.6-0.16 1.14-0.02 1.7-0.06 0.1 0.04 0.24-0.02 0.44 0.14 0.64 0.3 1.46 0.88 1.76 0.96-0.06 1.38-0.78 1.92-1.28 0.2-0.5 0.64-0.76 0.84-1.26 0.48-0.68 0.8-1.52 1.16-2.3 0.26-0.64 0.52-1.5 0.78-2.24 0.02-0.06-0.04-0.04-0.02-0.12 0.16-0.34 0.28-1.14 0.42-1.72-0.06-0.36 0.16-0.72 0.1-1.02 0.06 0.04 0.02-0.08 0.08-0.04-0.04-0.1 0-0.12-0.06-0.14 0.12-0.08-0.04-0.18 0.08-0.22-0.04-0.02-0.06 0.02-0.06 0 0-0.44 0.04-1-0.02-1.32 0.04 0 0.14 0 0.08-0.04 0-0.1-0.04 0.02-0.08 0 0.02-0.08-0.06-0.2 0-0.3 0.02 0.02 0.02 0.08 0.08 0.08-0.04-0.08 0.02-0.04 0.02-0.12-0.06-0.04-0.1 0.02-0.14-0.02-0.02-0.12 0-0.32-0.1-0.42 0.02 0.02 0.06 0.04 0.06 0-0.04 0.02-0.02-0.06-0.06-0.06-0.06-0.1 0-0.2-0.08-0.26 0.04-0.06 0-0.08 0.02-0.16-0.12-0.08-0.2-0.36-0.18-0.52-0.1-0.06-0.14-0.2-0.16-0.34-0.22-0.32-0.38-0.72-0.66-1-0.22-0.24-0.56-0.28-1.1-0.22-0.44 0.22-0.94 0.4-1.26 0.72h-0.08c-1.12 1.04-2.1 2.22-2.78 3.7-0.02 0-0.04 0-0.06 0.02-0.06 0.26-0.24 0.54-0.36 0.8-0.06 0.16-0.1 0.4-0.26 0.56 0.1 0.1-0.06 0.32-0.14 0.46 0.04 0.08-0.04 0.46-0.14 0.54 0.04 0.08 0.02 0.12 0.04 0.2-0.06-0.02-0.06 0.02-0.08 0.06 0.1 0.02-0.04 0.08-0.04 0.12 0.1 0.08 0.04 0.2-0.04 0.28 0.1 0.14 0.04 0.46-0.02 0.64 0.14 0.56 0.28 1.48 0.92 1.72 0.26-1.24 0.82-2.3 1.42-3.34zm1.68-6.42c0.02 0 0-0.02 0 0zm-0.06 0.08v0.04c-0.12 0.1 0.08-0.06 0-0.04zm-0.1 0.08c0.02 0.02-0.02-0.02 0 0zm-0.56 0.08c0.02 0.02 0-0.02 0 0zm0.44 0.16h0.04v-0.04h-0.04v0.04zm-0.56 0.42c0.06-0.04 0.12 0.04 0.12-0.04-0.1-0.02 0.06-0.08 0.06-0.12-0.06 0 0.02-0.12-0.04-0.1-0.02 0.1-0.16 0.1-0.14 0.26zm-0.3-0.14c0-0.02 0-0.04 0.02-0.02 0-0.04 0-0.04-0.04-0.04 0 0.02 0 0.06 0.02 0.06zm-0.52 0.54c-0.06 0-0.12 0.02-0.12 0.1 0.08-0.02 0.12-0.04 0.12-0.1 0.1-0.02 0.12-0.12 0.16-0.18 0.06-0.06 0.24-0.18 0.16-0.24-0.06 0.16-0.28 0.2-0.32 0.42zm0.56-0.38c0.02 0.02 0 0 0 0zm0.16 0.12c0-0.02 0.02-0.06 0.04-0.08s0.06 0 0.06-0.02h-0.1c0.02 0.04-0.08 0.08 0 0.1zm-0.22-0.06zm-0.1 0.06c0.02 0.02-0.02 0 0 0zm0.14 0.06v0.08c0.08-0.02 0.12-0.04 0.14-0.1-0.04-0.02-0.1-0.02-0.14 0.02zm4.32 0.02c0.02 0.02 0-0.02 0 0zm-0.18 0.04s-0.02 0 0 0zm-4.36 0.04c0.04 0.08 0.06-0.08 0 0zm0.18 0.1c0-0.06 0.06-0.02 0.04-0.1-0.04-0.04-0.12 0.06-0.04 0.1zm4.36 0.28c-0.06 0.24 0.26 0.58 0.2 0.9 0.1 0.12 0.08 0.24 0.1 0.46 0.02 0 0.04 0.02 0.08 0.02-0.06-0.12 0-0.2-0.08-0.28 0.02 0.02 0.02-0.02 0.02-0.04-0.02-0.14-0.08-0.18-0.04-0.34-0.12-0.08-0.08-0.14-0.08-0.28-0.02 0-0.06 0-0.06-0.02 0.1-0.16-0.06-0.2-0.06-0.4-0.04 0-0.04-0.02-0.08-0.02 0.04-0.1-0.04-0.3-0.14-0.34 0.02 0.08 0 0.08-0.02 0.14 0.02 0.02 0.1 0 0.1 0.04-0.04 0.08 0 0.12 0.06 0.16zm0.08-0.28c0.04 0.08 0.04-0.1 0 0zm-4.56 0.08c0.04 0 0.1-0.06 0.04-0.06 0 0.02-0.04 0.04-0.04 0.06zm4.64 0.02c0.06-0.02-0.02-0.1-0.06-0.04 0.04 0 0.04 0.02 0.06 0.04zm-4.92 0c0.04 0 0.06-0.02 0.08-0.04-0.04 0-0.06 0.02-0.08 0.04zm0.18 0.12c0-0.04 0.04-0.04 0.06-0.04 0.02-0.04 0-0.08-0.04-0.08 0 0.02-0.06 0.08-0.02 0.12zm-0.62 0.12c-0.06 0-0.16 0.1-0.1 0.16 0.04-0.06 0.1-0.08 0.1-0.16 0.08-0.04 0.14-0.14 0.18-0.2-0.1 0.02-0.16 0.1-0.18 0.2zm5.38-0.18c0.02 0.1 0.02-0.08 0 0zm-4.96 0.3c0.04-0.08 0.12-0.1 0.12-0.18-0.08 0.02-0.16 0.12-0.12 0.18zm5.04-0.1c0.02 0.08 0.06-0.08 0 0zm0.24 1.18c0.26 1.84-0.26 3.96-0.76 5.66l0.08 0.08h-0.1c0 0.1-0.04 0.12 0 0.2-0.08-0.02-0.08 0.06-0.1 0.08-0.02 0.08 0.1 0.06 0.08 0.14-0.06 0-0.08-0.06-0.14 0-0.04 0.12 0.04 0.08 0.06 0.18-0.14 0-0.06 0.06-0.14 0.1 0.04 0.02 0 0.12 0.06 0.12h-0.12c0 0.1-0.04 0.14 0 0.18 0.04-0.02 0.08 0 0.1 0.02 0.18-0.6 0.46-1.16 0.54-1.78 0.02-0.02 0.1 0.02 0.08-0.06 0-0.02-0.04-0.02-0.06-0.04 0.1-0.14 0.06-0.4 0.2-0.56 0.04-0.28 0.06-0.62 0.2-0.84 0.04-0.98 0.28-1.7 0.12-2.58 0.1-0.14-0.04-0.42 0.04-0.58-0.12-0.44-0.12-1.1-0.36-1.46 0.1 0.4 0.2 0.74 0.22 1.14zm-5.38-1.02c0.04 0.02 0.04 0 0.08 0v-0.04c-0.02 0-0.02-0.02-0.04-0.02 0 0.02-0.02 0.04-0.04 0.06zm-0.6 0.24h0.02c0.02-0.08 0.2-0.22 0.1-0.26-0.06 0.22-0.34 0.3-0.34 0.5 0.02-0.06 0.04-0.04 0.06 0 0.04-0.06 0.12-0.08 0.08-0.2 0.04 0.04 0.08 0.02 0.08-0.04zm0.44 0c0.04-0.04 0.18-0.14 0.12-0.2 0 0.1-0.14 0.06-0.12 0.2zm-0.16-0.02c0.02-0.04 0-0.08-0.04-0.08 0 0.04 0 0.08 0.04 0.08zm-0.14 0.04c0.04 0 0.06-0.02 0.06-0.04-0.04 0-0.06 0-0.06 0.04zm0.26 0.02c0.02 0.02 0-0.02 0 0zm-0.28 0.02c0 0.02-0.02 0 0 0zm0.18 0.14c0.04 0.06 0.06-0.08 0 0zm-0.06 0.04c-0.04 0.08 0.08-0.04 0 0zm-0.24 0.04s-0.04 0-0.04 0.02c0.02 0 0.04 0 0.04-0.02zm-0.38 0.2c0.02-0.06 0.1-0.06 0.12-0.1-0.06 0 0.02-0.12-0.06-0.08 0.04 0.12-0.12 0.12-0.06 0.18zm0.52-0.08c0.06 0.02 0.14-0.06 0.08-0.1 0 0.04-0.08 0.04-0.08 0.1zm-0.3 0.08c0.02-0.06 0.06-0.08 0.08-0.12-0.08-0.02-0.14 0.08-0.08 0.12zm0.24 0.02c0.02-0.02 0.06-0.06 0-0.06 0 0.02-0.04 0.04 0 0.06zm-0.3 0.02c0.02 0.1 0.02-0.08 0 0zm0.04 0.06c0.08 0.04 0.08-0.12 0-0.08v0.08zm6.36 0.06c-0.02-0.04 0.02-0.04 0.02-0.08-0.04-0.02-0.04-0.04-0.08-0.06 0.02 0.04 0.02 0.12 0.06 0.14zm-6.64-0.04c-0.2 0.14-0.28 0.4-0.42 0.62 0.22-0.14 0.32-0.38 0.42-0.62h0.02c0-0.04 0-0.08-0.04-0.08 0 0.04 0.02 0.04 0.02 0.08zm0.52-0.02c0.04 0.08 0.04-0.1 0 0zm-0.44 0c-0.02 0-0.04 0-0.04 0.02 0.02 0 0.04 0 0.04-0.02zm0.1 0.12c0.06 0 0.16-0.06 0.08-0.1 0 0.06-0.08 0.04-0.08 0.1zm0.24-0.08c0.04 0.08 0.04-0.1 0 0zm6.28 0.34c0-0.12-0.02-0.22-0.06-0.3 0 0.12-0.02 0.22 0.06 0.3zm-6.4-0.02c0.02-0.06 0.1-0.14 0.02-0.2-0.02 0.06-0.08 0.18-0.02 0.2zm-0.24-0.02c0.02-0.04 0.1-0.12 0.04-0.14 0 0.04-0.1 0.1-0.04 0.14zm-0.04 0s-0.04 0-0.04 0.02c0.02 0 0.04 0 0.04-0.02zm0.02 0.08c-0.02 0-0.02 0-0.04 0.02 0.02-0.02 0.04 0 0.04-0.02zm6.66 0.14c0-0.04 0.04-0.04 0.04-0.1-0.04 0-0.04-0.04-0.06 0 0.04 0.02-0.04 0.08 0.02 0.1zm-6.76-0.02c-0.04 0.02-0.1 0.02-0.1 0.1 0.08 0 0.08-0.04 0.1-0.1 0.04-0.02 0-0.02 0 0zm0.14 0.04c0.04 0.02 0 0.04 0 0.08 0.1 0 0.06-0.1 0.12-0.12-0.06 0-0.12 0-0.12 0.04zm6.18 0.06h0.06v-0.1h-0.06v0.1zm0.44 0c0.02 0 0-0.02 0 0zm-6.94 0.1c0.04 0 0.04 0 0.06 0.02 0-0.04 0.06-0.12-0.02-0.12-0.02 0.02-0.06 0.04-0.04 0.1zm-0.24-0.02c0.06-0.02 0.08 0.02 0.1-0.04-0.04-0.04-0.12-0.04-0.1 0.04zm-0.32 0.64c0.12-0.12 0.36-0.4 0.3-0.62-0.06 0.22-0.3 0.4-0.3 0.62zm0.68-0.54h0.06v-0.04h-0.06v0.04zm-0.18 0.1c0.06 0 0.08-0.06 0.08-0.12-0.06 0-0.1 0.04-0.08 0.12zm0.28-0.06c-0.02 0 0 0.02 0 0 0.04-0.02 0-0.04 0 0zm-0.12 0.04c-0.06 0.06 0.08-0.06 0 0zm6.5 0.02c-0.02 0-0.02-0.02-0.06-0.02-0.04 0.06 0.08 0.06 0.06 0.02zm-6.54 0.22c-0.02 0.02 0 0.04 0 0 0.08-0.04 0.08-0.16 0.14-0.22-0.1 0.04-0.12 0.12-0.14 0.22zm6.88-0.16c0.02 0.08 0.02-0.08 0 0zm-7.16 0.2c0.04-0.02 0.12-0.14 0.08-0.2-0.02 0.06-0.1 0.16-0.08 0.2zm6.78-0.18c0.02 0.02-0.02-0.02 0 0zm-6.54 0.04c0.02 0.1 0.02-0.08 0 0zm6.52 0.18c0.08 0.02 0.06-0.16 0.02-0.18-0.04 0.1 0.02 0.14-0.02 0.18zm0.4-0.1c0.04 0.08 0.04-0.1 0 0zm-7.08 0.08c0.02 0.02 0-0.02 0 0zm-0.12 0.02c0.04-0.1-0.06 0.12 0 0zm0.26 0.02c-0.02 0.02 0 0.04 0 0 0.06 0-0.02-0.08 0 0zm6.98 0.02c0.06-0.02-0.04-0.08-0.04-0.04 0.02 0 0 0.04 0.04 0.04zm-0.44 0.04c0.02 0.08 0.02-0.1 0 0zm-6.9 0.08h-0.02c-0.02 0.04-0.04 0.04-0.04 0.1h-0.02c0 0.06-0.02 0.12 0 0.16h-0.02c0 0.06-0.08 0.04-0.1 0.1h-0.02c-0.02 0.02-0.02 0.04-0.02 0.08 0.08 0.04 0.04-0.04 0.04-0.08 0.08 0.02 0.12-0.02 0.12-0.1 0.06 0 0.06-0.04 0.06-0.1 0.06-0.02 0-0.12 0.02-0.16h0.1v-0.06c-0.06 0-0.06 0.04-0.1 0v0.06zm7.34-0.04c0 0.02-0.02-0.02 0 0zm-0.42 0.04h0.04v-0.04h-0.04v0.04zm-6.48 0c0.02 0.02 0 0 0 0zm-1.12 1.02c0.18-0.26 0.22-0.6 0.44-0.8-0.12-0.06 0.12-0.18 0-0.22-0.18 0.28-0.36 0.66-0.44 1.02zm1-1.02c-0.02 0.02-0.04 0-0.06 0.02 0.02 0 0.06 0 0.06-0.02zm6.98 0.6c0.1-0.12 0.1-0.44 0-0.56 0.04 0.24 0.02 0.36 0 0.56zm-0.4-0.52c0.06 0.1 0.02-0.06 0 0zm-6.76 0c-0.02 0-0.04 0-0.04 0.02 0.02 0 0.04 0 0.04-0.02zm0.08 0.06c0.04 0.08 0.06-0.1 0 0zm-0.1 0.14c0.02 0.1 0.12-0.12 0.02-0.02 0 0-0.02 0-0.02 0.02zm-0.14 0.02h0.04v-0.04h-0.04v0.04zm0.1 0.1c0.02 0.08 0.06-0.1 0 0zm-0.26 0.04c0.02 0.02 0 0 0 0zm-0.1 0.1c0.08 0.04 0.14-0.06 0.08-0.06 0 0.02-0.1 0-0.08 0.06zm0.2 0c-0.06 0.02 0.02 0.1 0 0 0.02 0 0-0.02 0 0zm6.94 0.06c0.04 0.08 0.06-0.1 0 0zm-7.26 0.14h0.06c0 0.02 0 0.04 0.02 0.02-0.04-0.1 0.06-0.08 0.06-0.16-0.06 0.02-0.1 0.08-0.14 0.14zm0.34-0.04c0.06 0 0.06-0.12 0-0.08v0.08zm7.34 0.16c0.06-0.02 0.1-0.18 0.06-0.24-0.04 0.08-0.04 0.16-0.06 0.24zm-7.46-0.1c0.02-0.06 0-0.08-0.06-0.06 0 0.04 0 0.08 0.06 0.06zm0.06 0c0.06 0.08 0.06-0.06 0 0zm-0.06 0.18c0.1 0.02 0.1-0.1 0.06-0.12-0.02 0.04-0.06 0.06-0.06 0.12zm7.38-0.1c0.06 0.08 0.04-0.08 0 0zm-7.66 0.08c0.08-0.02 0.1 0.02 0.14 0 0-0.08-0.06-0.08-0.12-0.08 0 0.04 0 0.06-0.02 0.08zm0.16 0.02c0.06-0.02 0.04 0.04 0.08 0.04 0.04-0.06-0.06-0.1-0.08-0.04zm7.6 0.1c0-0.06 0.04-0.06 0.04-0.1-0.04 0-0.04-0.02-0.06-0.02 0.02 0.04 0.02 0.1 0.02 0.12zm-7.84 0.02c-0.02 0.08 0.04 0.08 0.08 0.08 0.02-0.02 0.04-0.04 0.04-0.08-0.04-0.06-0.06 0.02-0.12 0zm0.2 0.08c0.08-0.04 0 0.08 0.06 0.06 0-0.04 0.06-0.04 0.06-0.06-0.1 0 0.1-0.1-0.04-0.1 0.02 0.08-0.1 0.02-0.08 0.1zm-0.54 0.32c-0.06 0.02-0.02 0.18 0.04 0.12-0.06-0.14 0.04-0.22 0.1-0.3-0.02 0-0.04 0-0.04-0.02 0.06-0.06 0.1-0.14 0.06-0.2-0.06 0.12-0.16 0.26-0.16 0.4zm8.18-0.38c-0.12 0-0.02 0.08-0.06 0.16 0.1-0.02 0.06-0.1 0.06-0.16 0.04-0.02 0-0.02 0 0zm-7.72 0.06c0.02 0.02 0 0 0 0zm-0.14 0.02c-0.02 0.14 0.02-0.08 0 0zm0.04 0.08c0.02 0.08 0.02-0.1 0 0zm0.12 0c0.04 0.08 0.06-0.1 0 0zm0.16 0.04c0.02 0.08 0.02-0.1 0 0zm-0.44 0.3c0 0.08 0.1 0 0 0 0-0.06 0.08-0.06 0.14-0.08-0.02-0.1-0.04-0.16 0.04-0.2-0.14-0.02-0.18 0.08-0.08 0.18-0.08 0-0.08-0.06-0.12 0-0.04 0.16-0.1 0.34-0.16 0.5 0.06 0.02 0.14-0.02 0.12 0.06-0.06 0-0.06-0.04-0.14-0.02-0.06 0.22-0.12 0.34-0.12 0.54 0.06 0 0.12 0 0.12-0.08-0.02 0-0.12-0.04-0.04-0.08 0.04 0.06 0.1 0.06 0.16 0.08-0.08-0.14 0.04-0.34 0.08-0.52-0.02-0.04-0.12 0-0.12-0.04 0.08-0.12 0.04-0.22 0.12-0.34zm7.96-0.28c-0.08-0.06-0.08 0.08 0 0zm-7.64 0.06c0.06 0.02 0.04-0.04 0.06-0.06-0.04 0-0.08 0.02-0.06 0.06zm7.6 0.04c0 0.02-0.02 0 0 0zm-8 0.1h0.04v-0.04h-0.04v0.04zm0.5 0c-0.06-0.08-0.06 0.08 0 0zm7.5 0.02c0.02 0.08 0.02-0.1 0 0zm-7.7 0.18c0.02-0.06 0.02-0.12 0.04-0.16h-0.06c0 0.04-0.02 0.14 0.02 0.16zm7.62 0.42c0.04-0.08 0.06-0.16 0.1-0.26-0.1-0.04 0.04-0.26-0.02-0.28-0.04 0.24-0.14 0.4-0.08 0.54zm-8.04-0.5c-0.04 0-0.04-0.04-0.08-0.02-0.02 0.08 0.08 0.1 0.08 0.02zm0.26 0.18c0-0.06 0.04-0.14-0.02-0.16-0.04 0.04-0.06 0.14 0.02 0.16zm0.12 0.06c-0.04-0.06 0.04-0.14-0.06-0.14 0 0.08-0.02 0.14 0.06 0.14zm-0.56 0.12c0.12 0 0.14-0.18 0.08-0.22 0.02 0.12-0.06 0.14-0.08 0.22zm0.3-0.08c0.02 0 0-0.02 0 0zm0.18 0c-0.06 0.08 0.08-0.06 0 0zm0.1 0s-0.02-0.02 0 0zm0.08 0.02c0.02 0.02 0-0.02 0 0zm-0.14 0.12c0-0.04-0.02-0.06-0.04-0.08 0 0.04 0 0.08 0.04 0.08zm-0.58 0.14h0.1c0-0.06-0.04-0.1-0.1-0.12v0.12zm0.46 0.02c0.06 0.02 0.06-0.04 0.1-0.06-0.1 0.06-0.06-0.12-0.12-0.06 0.06 0 0 0.1 0.02 0.12zm7.78 0c0 0.02-0.02 0 0 0zm0.06 0.08c0-0.02-0.02-0.04-0.04-0.04-0.04 0.02-0.04 0.06 0.04 0.04zm-8.3 0h-0.02c-0.02 0.04-0.02 0.1 0.02 0.1v-0.1c0.04 0 0.06-0.02 0.06-0.02-0.04 0-0.06 0-0.06 0.02zm0.42 0.1v0.04h0.04c0.02-0.04-0.02-0.04-0.04-0.04 0-0.04-0.02-0.06-0.04-0.08 0 0.04 0.02 0.06 0.04 0.08zm7.64 0.78c0.04-0.12 0.14-0.22 0.08-0.36 0.02 0 0.06 0 0.06-0.02-0.08-0.1 0.1-0.3 0-0.42-0.02 0.24-0.14 0.5-0.14 0.8zm-8.1-0.6c0 0.06 0.08-0.04 0 0 0-0.08 0.1-0.12 0-0.16 0.02 0.08-0.06 0.12 0 0.16zm0.52 0.02c-0.04-0.02-0.04-0.06-0.08-0.08 0 0.06 0.06 0.14 0.08 0.08zm-0.14 0.06c0-0.04-0.02-0.06-0.06-0.06 0 0.04 0.02 0.06 0.06 0.06zm-0.38 0c0 0.02-0.04 0-0.04 0.04 0.02-0.02 0.04 0 0.04-0.04zm0.3 0.06c0 0.12 0.12 0.22 0.18 0.14-0.04-0.04-0.1 0.02-0.12-0.06 0.04-0.06 0.08-0.08 0.1-0.14-0.1-0.02-0.04 0.1-0.16 0.06zm-0.04 0c0.02 0-0.02-0.02 0 0zm8.06 0.12c0.02 0.02 0-0.02 0 0zm-8.4 0.12c-0.02 0-0.06 0-0.06 0.02 0.02 0 0.06 0 0.06-0.02zm0.34 0.06c0.02 0-0.02-0.02 0 0zm0.12-0.04c-0.02 0.02-0.04 0-0.06 0.04 0.02-0.02 0.06 0 0.06-0.04zm-0.12 0.18c0.08 0.02 0.1-0.04 0.12-0.08-0.06 0.02-0.12 0.02-0.12 0.08zm-0.02 0.04c0.02 0.1 0.02-0.06 0 0zm7.52 1.28c0.18-0.12 0.04-0.42 0.24-0.56-0.1-0.22 0.16-0.4 0.06-0.72-0.08 0.46-0.22 0.88-0.3 1.28zm-7.92-1.08c0.04 0.06 0.06-0.1 0 0zm0.44 0.02c0.02 0.1 0.02-0.06 0 0zm0.02 0.42c-0.04-0.08-0.02-0.08 0-0.16-0.12-0.06-0.1 0.14 0 0.16zm7.88 0.02c0 0.02-0.02 0 0 0zm-7.98 0.06h0.04v-0.06h-0.04v0.06zm0.1 0.02c-0.06 0.08 0.08-0.06 0 0zm-0.02 0.14c0.02 0.04 0.04 0 0 0-0.02-0.02-0.02 0 0 0zm-0.18 0.08c0.04 0 0.06 0.02 0.08 0.02v-0.06h-0.04c0 0.02-0.02 0.02-0.04 0.04zm0.18 0.1c0-0.04-0.02-0.06-0.04-0.08 0 0.04 0 0.08 0.04 0.08zm-0.06 0.12c0.06 0.02 0.02-0.08 0.06-0.1-0.06 0-0.06 0.04-0.06 0.1zm0.08-0.04h0.06v-0.06h-0.06v0.06zm-0.14 0.02c-0.04 0-0.02-0.04-0.06-0.06-0.02 0.06 0.04 0.12 0.06 0.06zm7.74-0.02c0-0.04-0.04-0.04-0.04 0 0.02-0.02 0.04 0.02 0.04 0zm-7.6 0.16c0-0.04 0.02-0.1-0.04-0.1 0 0.06 0 0.1 0.04 0.1zm0.08 0.02c0-0.02-0.02-0.04-0.06-0.04 0.02 0.02 0 0.06 0.06 0.04zm7.4-0.02c-0.02 0-0.06 0-0.08 0.02 0.04 0 0.08 0.02 0.08-0.02zm-7.5 0.18h0.12c0-0.06-0.1-0.14-0.12-0.08 0.04 0 0 0.02 0 0.08zm7.42-0.08c0.02 0.02 0-0.02 0 0zm0 0.1c0.02 0.02 0-0.02 0 0zm-0.02 0.08c0.02 0.06-0.08 0.02-0.06 0.08h0.12c0-0.06 0-0.14-0.06-0.08 0.04-0.12-0.06-0.04 0 0zm-7.28 0c0.02 0 0-0.02 0 0zm0.18 0s-0.02-0.02 0 0zm-0.26 0s-0.04 0-0.04 0.02c0.02-0.02 0.04 0 0.04-0.02zm5.14 0.02c-0.06 0.08 0.08-0.06 0 0zm2.54 0.02c0.04 0.1 0.02-0.08 0 0zm-7.68 0.02c-0.02 0.08 0.08 0.04 0.1 0.08v-0.1c-0.04 0-0.06 0-0.1 0.02zm7.36 0.08c0.04 0.06 0.04-0.1 0 0zm-2.44 0.02c0.02 0.08 0.02-0.1 0 0zm-4.88 0c0.06 0.1 0.02-0.06 0 0zm4.8 0c-0.06 0.12 0.16 0.04 0 0zm2.42 0.02c0.02 0.02 0 0 0 0zm-7.18 0.1h0.04c0-0.02 0-0.02 0.02-0.04-0.02 0-0.02-0.04-0.06-0.02v0.06zm4.2 0.12c0.06 0.06 0.12-0.02 0.1 0.08 0.14-0.1 0.28-0.18 0.42-0.26-0.24 0.02-0.34 0.16-0.52 0.18zm2.96-0.16c0.02 0.02 0-0.02 0 0zm-5.78 0.04zm5.8 0s-0.02 0-0.02 0.02c0 0 0.02 0 0.02-0.02zm0.42 0.08c0.02 0.02 0-0.02 0 0zm-7.58 0.04c0.02 0 0.02-0.02 0.04-0.04-0.04-0.02-0.1 0.04-0.04 0.04zm7.34 0c0.02 0.02-0.02 0 0 0zm-7.28 0.06c0.06 0.08 0.04-0.06 0 0zm3.36 0.34c0.32-0.06 0.5-0.24 0.84-0.28 0-0.02 0.02-0.04 0-0.06-0.28 0.12-0.6 0.16-0.84 0.34zm3.64-0.3s-0.04 0-0.04 0.02c0.02 0 0.04 0 0.04-0.02zm-6.8 0.02c-0.02 0.02-0.04 0-0.04 0.04 0.02-0.02 0.04 0 0.04-0.04zm6.74 0.14c0.02 0-0.02-0.02 0 0zm-6.84 0.02c0.02 0.08 0.02-0.08 0 0zm4.12 0.12c0.08-0.02 0.2-0.06 0.1-0.1 0.02 0.08-0.12 0-0.1 0.1zm-2.92 0c0-0.04 0.06-0.02 0.04-0.08-0.04-0.02-0.08 0.06-0.04 0.08zm5.56 0.1c-0.04 0.02-0.16 0.18-0.08 0.22 0.04-0.06 0.08-0.12 0.08-0.22 0.08 0 0.14-0.16 0.06-0.18-0.02 0.12-0.04 0.12-0.06 0.18zm0.12-0.16c0.04 0.1 0.04-0.08 0 0zm-6.8 0.06c0.02 0.06 0.02-0.1 0 0zm2.94 0.04c0.08 0.06 0.18-0.02 0.22-0.06-0.04 0.04-0.18 0.02-0.22 0.06zm1-0.02c-0.06 0.06 0.08-0.06 0 0zm2.42 0.06c0 0.08 0.1 0.06 0.08 0.14-0.1 0-0.1 0.1-0.14 0.16 0.06 0.02 0.04 0.1 0.12 0.08 0.02-0.18 0.04-0.3 0.12-0.42-0.08-0.06-0.1 0-0.18 0.04zm-3.76 0.08c0.08 0.04 0.24-0.06 0.32-0.12-0.06 0-0.24 0.08-0.32 0.12zm1.42-0.08c0.02 0 0-0.02 0 0zm-0.28 0.04c0.04 0 0.04 0.04 0.06 0.04 0-0.04 0.04-0.04 0.04-0.06-0.04-0.02-0.06-0.04-0.1 0.02zm-0.08 0.02c-0.04 0.02 0 0.04 0 0 0.02-0.02 0-0.02 0 0zm-2.76 0.06s-0.04 0-0.04 0.02c0.02-0.02 0.04 0 0.04-0.02zm1.48 0.04c0-0.02-0.04-0.04-0.04 0 0.02 0 0.04 0.02 0.04 0zm-1.34 0.02c0.04 0 0.1 0.04 0.1 0-0.06 0-0.08-0.06-0.1 0zm1.2 0h-0.04 0.04zm-0.16 0.06c0.06 0 0.1-0.02 0.1-0.06-0.04 0.02-0.12 0-0.1 0.06zm4.18 0.32-0.06-0.06c0.02 0.18-0.1 0.18-0.06 0.3 0.1-0.1 0.18-0.22 0.22-0.4-0.04 0-0.02-0.06-0.1-0.04 0 0.08-0.04 0.1 0 0.2zm0.28-0.16c-0.06 0-0.08 0.1-0.02 0.12-0.02-0.06 0.02-0.08 0.02-0.12 0.14 0.02 0.06-0.08 0 0zm0.02 0.06c0.04 0.08 0.06-0.08 0 0zm-0.1 0.12c0.04 0.06 0.04-0.1 0 0zm-5.5 0.04c0.04 0.08 0.06-0.06 0 0zm-0.24 0.04c0.02 0.08 0.02-0.08 0 0zm5.72 0.14c0.1 0 0.02-0.12 0-0.14v0.14zm-5.7-0.02c0.02 0 0-0.02 0 0zm0.14 0c0.02 0 0-0.02 0 0zm-0.02 0.18c0-0.04 0.08-0.16 0-0.14 0.02 0.04-0.06 0.12 0 0.14zm0.08-0.14c-0.02 0.12 0.1 0 0 0zm5 0.46c0.08-0.06 0.08-0.2 0.14-0.28 0 0 0 0.04 0.02 0.04 0.02-0.06 0.06-0.14 0.06-0.2-0.04 0-0.04-0.02-0.08-0.02 0 0.22-0.24 0.34-0.14 0.46zm0.44-0.28s-0.04 0-0.04 0.02c0.02-0.02 0.04 0 0.04-0.02zm-5.54 0.14c0-0.04 0.04-0.04 0.02-0.08-0.08 0-0.06 0.06-0.02 0.08zm5.4 0c0.02 0.02 0-0.02 0 0zm-5.44 0.24c-0.02-0.08 0.02-0.12 0.1-0.12-0.02-0.08 0.02-0.1-0.04-0.12-0.06 0.04-0.16 0.2-0.06 0.24zm5.46-0.2c0 0.02-0.02 0-0.02 0.04 0-0.02 0.02 0 0.02-0.04zm-0.28 0.18c0-0.06-0.06-0.06-0.1-0.06 0 0.06 0.04 0.04 0.1 0.06zm-5.12-0.02c-0.02 0.14 0.02-0.08 0 0zm4.94 0.14c0.08-0.02 0.06-0.02 0.12 0 0.02-0.08-0.04-0.08-0.06-0.1 0 0.06-0.06 0.04-0.06 0.1zm-5.12 0.24c0.12-0.02 0.08-0.08 0.16-0.16-0.16 0.06 0-0.1-0.1-0.12-0.04 0.1-0.04 0.14-0.06 0.28zm5.12-0.16c-0.06-0.02-0.1 0.06-0.02 0.06 0.02-0.1 0 0.06 0.04 0.04 0-0.06 0.04-0.14-0.02-0.14v0.04zm0.28 0.04c0 0.02-0.02 0 0 0zm-0.36 0.18c0-0.04 0.06-0.04 0.04-0.1h-0.08c0 0.06 0.02 0.08 0.04 0.1zm0.3-0.06c0.04 0.06 0.06-0.1 0 0zm-5.4 0.56c0.16-0.06 0.1-0.36 0.06-0.54-0.02 0.2 0 0.3-0.06 0.54zm5.06-0.4c0.02 0 0-0.02 0 0zm-0.1 0.04c0.04 0.06 0.06-0.1 0 0zm-4.82 0.08c0.02 0.02 0-0.02 0 0zm0.14 0c-0.06 0 0.02 0.1 0 0 0.02-0.02 0-0.04 0 0zm4.68 0.06c0.06-0.02 0-0.1-0.02-0.04 0.02 0 0.02 0.04 0.02 0.04zm-0.04 0.06c0-0.06 0.04-0.08-0.04-0.1 0.02 0.04 0 0.08 0.04 0.1zm-4.66 0.02v0.04c0.04 0.02 0.06-0.08 0.02-0.06 0 0 0 0.02-0.02 0.02zm4.56 0.1c0.06 0 0.1-0.06 0.12-0.1-0.08 0-0.12 0.04-0.12 0.1zm-0.12 0.26c0.02-0.08 0.18-0.16 0.06-0.24 0 0.12-0.14 0.16-0.06 0.24zm0.26-0.16c-0.04 0 0 0.02 0 0 0.02-0.02 0-0.04 0 0zm-4.7 0.04c-0.02 0.02 0.02 0.02 0 0 0.02-0.02 0-0.02 0 0zm4.68 0.02c-0.02 0-0.04 0-0.06 0.02 0.02-0.02 0.06 0 0.06-0.02zm-0.36 0.3c-0.04 0-0.08 0-0.08 0.02 0.04 0 0.08 0.02 0.08-0.02zm0.12 0.06s-0.02-0.02 0 0zm-0.16 0.18c0.02 0.02 0 0 0 0zm-0.14 0.04c0.02 0 0-0.02 0 0zm-4.14 0.22s-0.04 0-0.04 0.02c0.02-0.02 0.04 0 0.04-0.02zm4.12 0.04c0.02 0.02-0.02-0.02 0 0zm-0.02 0.04c0 0.02-0.02 0 0 0zm-4.12 0.04c0.02 0.02 0-0.02 0 0zm0 0.14c0.02 0.02 0-0.02 0 0zm-0.02 0.08h0.06c0-0.02 0-0.04-0.06-0.04v0.04zm4.36 0c0 0.02-0.02-0.02 0 0zm-4.26 0.4c0.02 0.08 0.02-0.08 0 0zm0 0.72c0-0.02-0.04-0.12-0.06-0.06 0.04 0 0 0.1 0.06 0.06zm0.18 0.04c0-0.02 0.04-0.04 0-0.06 0 0.02-0.02 0.04 0 0.06zm2.6-14.54c0.06-0.04-0.06 0.08 0 0zm-0.14 0.06c0.08 0.02-0.02 0.04-0.02 0.06-0.06-0.02 0.02-0.04 0.02-0.06zm-0.22 0.6c0.02 0 0 0 0 0zm3.68 1.18c0.04-0.08 0.04 0.1 0 0zm-5.48 0.4v-0.02c-0.02 0 0 0.02 0 0.02zm5.64 0.46s-0.02 0.02-0.02 0h0.02zm-6.76 1.6c0.02 0 0.04 0.02 0.04 0.06-0.04 0-0.04-0.02-0.04-0.06zm7.1 1.2h0.04v0.06h-0.04v-0.06zm-0.02 0.32c0.08 0.02-0.04 0.14 0 0zm-5.04 0.36c0.02 0.02 0 0 0 0zm-2.74 0.08c0.02 0.02 0 0 0 0zm-0.1 0.02c0-0.02 0.04-0.02 0.06-0.02 0 0.02-0.04 0.02-0.06 0.02zm0.06 0.08c-0.02 0.04-0.04 0.08-0.1 0.08 0-0.08 0.04-0.08 0.1-0.08zm7.72 0.02c-0.04 0-0.02-0.04 0 0zm-5.14 0c0.04 0.02 0 0.04 0 0.08-0.04-0.02 0-0.04 0-0.08zm5.14 0c0.04 0 0.02 0.06 0 0.08-0.04-0.02-0.02-0.06 0-0.08zm-7.82 0.08c0.02 0.02 0.08 0.02 0.06 0.08-0.04-0.02-0.04 0.02-0.08 0.02-0.02-0.06 0-0.1 0.02-0.1zm2.58 0.2c-0.02-0.02-0.02 0-0.02 0.02-0.1 0.06 0.02-0.18 0.02-0.02zm5.16 0.06c-0.06 0 0.02-0.08 0 0zm-5.3 0.04c0.08-0.06-0.04 0.08 0 0zm5.3 0v-0.04c0.02 0 0.02 0.02 0 0.04zm0.68 0c0.04-0.08 0.02 0.08 0 0zm-0.68 0c0.02 0.12-0.08 0.02 0 0zm-5.36 0.08c0.02 0.02 0 0 0 0zm5.32 0.1c0.02 0 0-0.02 0 0zm0 0c-0.02 0.02 0 0.06-0.04 0.06 0.02-0.02 0.02-0.06 0.04-0.06zm-0.04 0.06c-0.02 0 0.02 0.02 0 0zm-0.02 0.12c0.04-0.1 0.04 0.06 0 0zm-0.02 0.14c0.08-0.06-0.06 0.08 0 0zm-7.84 0.32c0.02 0 0.04 0 0.04 0.06-0.04 0-0.04-0.04-0.04-0.06zm0.1 0h0.04v0.06h-0.04v-0.06zm7.64 0.1c0.02-0.08 0.04 0.1 0 0zm-0.02 0.12c0.02-0.08 0.02 0.1 0 0zm-0.08 0.22c0.06-0.1 0.04 0.06 0 0zm-0.02 0.08h0.04v0.04c-0.02 0-0.02 0.02-0.02 0.02h-0.04v-0.04c0.02 0 0.02-0.02 0.02-0.02zm-7.58 1.1c0.04 0.04 0.06 0.1 0.08 0.16-0.06 0-0.08-0.06-0.1-0.12 0.02 0 0.02-0.02 0.02-0.04zm5.04 0.16c0.04-0.06 0.02 0.08 0 0zm-0.1 0.2c0 0.02-0.02 0.02-0.08 0.02 0-0.02 0.04-0.02 0.08-0.02zm-3.96 0.68c-0.1 0-0.16-0.06-0.22-0.12 0.04-0.04 0.16 0.1 0.22 0.12zm0 0c0.04 0 0.04 0.02 0.06 0.04-0.02 0.02-0.04 0-0.06 0v-0.04zm0.08 0.1c0.02 0.02-0.02 0 0 0zm0.14 2.88c0.02 0.02 0 0 0 0zm1.52 2.4c0.02 0.02-0.02 0 0 0zm10.66-8.18c-0.38 0.34-0.4 1.04-0.74 1.26-0.16 0.38-0.22 0.84-0.5 1.04-0.22 1-0.92 1.86-1.2 2.8-0.34 0.38-0.78 0.98-1.42 0.7-0.3-0.32-0.6-0.78-0.44-1.42 0.02-0.08 0-0.16-0.02-0.22 0.1-0.48 0.2-1 0.22-1.5 0.22-0.8 0.2-1.74 0.32-2.5 0.38 0 0.54 0.3 0.66 0.48-0.16 0.36-0.06 0.92-0.02 1.42-0.18 0.68-0.2 1.62-0.32 2.46 0.94-1.28 1.4-3.04 2.36-4.32 0.14-0.58 0.56-1.1 1-1.52 0.26-0.02 0.42 0.08 0.58 0.16 0 0.56-0.32 0.76-0.48 1.16zm0.06-1.02c-0.06 0.08 0.08-0.06 0 0zm0.08 0.02c0.04 0 0.1 0.02 0.08-0.04h-0.04c0 0.02-0.02 0.04-0.04 0.04zm-0.54 0.08h0.04v-0.04h-0.04v0.04zm-0.54 1.84c-0.06 0-0.22-0.06-0.2 0.06 0.06 0.04 0.12-0.06 0.14 0-0.32 0.16-0.56 0.68-0.6 0.98 0.04-0.02 0.04-0.08 0.12-0.1 0.04 0.12-0.14 0.18-0.02 0.2 0.18-0.38 0.38-0.74 0.56-1.14 0.16-0.12 0.16-0.4 0.34-0.5-0.02 0.02-0.06 0.12 0.02 0.1-0.08-0.26 0.16-0.4 0.22-0.64-0.02-0.02-0.06-0.02-0.06-0.06 0.02-0.02 0-0.12 0.08-0.12 0 0.04 0 0.1 0.04 0.1 0.02-0.04 0.1-0.06 0.08-0.16h0.04c0.04-0.06 0.1-0.1 0.12-0.18-0.04 0-0.1 0.02-0.1-0.02s0.02-0.08 0.04-0.1c0.04 0.02 0.02 0.1 0.1 0.08 0.02-0.1-0.06-0.08-0.08-0.14 0.06-0.08 0.16-0.12 0.2-0.2-0.1 0-0.08 0.1-0.16 0.1 0-0.04 0-0.08-0.04-0.08-0.08 0.16-0.3 0.26-0.24 0.48-0.02 0.04-0.1 0.02-0.14 0.06 0.06 0.26-0.24 0.3-0.18 0.5-0.18 0.2-0.32 0.46-0.42 0.74 0.08 0 0.08-0.1 0.14-0.1v0.14zm1.08-1.74c0.02 0.02 0-0.02 0 0zm-0.12 0.12c-0.02 0.02 0 0.02 0 0 0.04-0.02 0-0.04 0 0zm-0.6 0.16v0.06h0.06c0.02-0.04 0.02-0.06-0.02-0.08-0.02 0.02-0.02 0.04-0.04 0.02zm-0.06 0.1c0.02 0.1 0.02-0.1 0 0zm-0.06 0.16c0.02 0.02 0 0 0 0zm-0.08 0.08c0 0.02-0.02 0 0 0zm-0.18 0.5c0.04-0.06 0.06-0.16 0.08-0.26-0.04 0-0.04-0.02-0.08-0.02 0.08 0.1-0.12 0.22 0 0.28zm-0.18 0.02c0.04 0.1 0 0.2-0.06 0.24 0.14 0.06 0.2-0.22 0.1-0.26 0 0.02-0.02 0.04-0.04 0.02zm-0.32 0.78c-0.12 0.12-0.22 0.36-0.22 0.52 0.1-0.14 0.18-0.32 0.22-0.52h0.1c0-0.22 0.16-0.3 0.18-0.5-0.22 0.08-0.14 0.34-0.28 0.5zm0.52-0.06c0.02 0.02 0 0 0 0zm-0.84 0.76c0.06 0.02 0.1-0.1 0.06-0.12-0.02 0.04-0.08 0.04-0.06 0.12zm-0.14 0.28c0.04-0.06 0.14-0.18 0.1-0.24-0.04 0.06-0.14 0.18-0.1 0.24zm-0.12 0.74h-0.02c-0.04 0.1-0.12 0.18-0.12 0.32h-0.02c-0.02 0.02-0.04 0.06-0.02 0.12 0.08 0.02 0.02-0.08 0.04-0.12 0.06-0.1 0.14-0.16 0.14-0.32 0.04 0 0.02-0.08 0.08-0.06 0.04 0.08-0.02 0.14 0.02 0.18 0.12-0.26 0.34-0.56 0.36-0.84-0.1 0.1 0.02-0.1-0.04-0.12-0.14 0.3-0.34 0.5-0.42 0.84zm0.48-0.42c0.02-0.02 0.06-0.1 0-0.1 0 0.02-0.06 0.1 0 0.1zm-0.52-0.04c0.02 0.02-0.02 0 0 0zm0.28 0.4v0.04h0.06c0-0.02 0-0.02 0.02-0.02v-0.06h-0.06c0 0.02 0 0.04-0.02 0.04zm-0.34 0.5c0.1 0 0.14-0.16 0.1-0.22-0.04 0.06-0.06 0.16-0.1 0.22zm1.92-3.62c-0.08-0.04-0.04 0.08-0.12 0.06 0.04-0.08 0.04-0.2 0.16-0.24 0 0.02 0.02 0.04 0.02 0.06-0.02 0.04-0.08 0.04-0.06 0.12zm-0.28 0.24c0.04 0 0.04 0.02 0.1 0.02-0.04 0.04-0.06 0.12-0.12 0.14 0.02-0.08 0-0.12 0.02-0.16zm0.5 0.12c0.02 0.02 0.04 0 0 0zm-0.6 0.08c0.08-0.02 0.04 0.08 0.02 0.1-0.02 0-0.02-0.06-0.02-0.1zm-0.12 0.18h0.06v0.1h-0.06v-0.1zm-0.12 0.24c0.06 0.02 0.04 0.18-0.04 0.14-0.04-0.08 0.06-0.06 0.04-0.14zm-0.06 0.24c0.02-0.02-0.02-0.04 0 0zm0 0c-0.04 0.02 0 0.02 0 0zm0.44 0.12c0.04 0.02 0.02 0.04 0 0.06-0.04 0 0-0.04 0-0.06zm-0.8 0.48c0.06 0 0.04 0.12-0.04 0.12 0-0.06 0.02-0.1 0.04-0.12zm-0.1 0.14c0.1 0 0.06 0.16-0.02 0.14-0.02-0.06-0.02-0.1 0.02-0.14zm-0.1 0.26c0.06-0.08 0.04 0.08 0 0zm-0.24 0.46c0.1 0.02-0.02 0.24-0.1 0.24 0.04-0.08 0.08-0.16 0.1-0.24zm-0.1 0.32c0 0.08-0.08 0.08-0.1 0.16-0.04-0.04 0-0.2 0.1-0.16zm6.2-2.48c-0.06 0.34 0 0.56-0.32 0.74-0.24 0.6-0.82 0.88-1.26 1.28-0.38 0.08-0.84 0.34-1.2 0.08-0.22 0.3-0.24 0.66-0.34 1.1 0.82 0.58 2.02-0.18 2.86-0.44 0.46-0.26 0.96-0.52 1.48-0.74 0.06-0.08 0.18-0.1 0.24-0.16 0.06 0.18-0.36 0.28-0.5 0.42 0 0.04 0.04 0.02 0.08 0.02-0.56 0.5-1.18 0.8-1.92 1.06 0.14 0 0.44 0 0.62-0.1-0.02 0.1-0.1 0.12-0.18 0.16 0 0.04 0.12-0.02 0.08 0.06-0.24 0.08-0.46 0.32-0.58 0.24-0.1 0.04-0.02 0.08-0.06 0.14-0.54 0.24-0.9 0.4-1.6 0.4-0.96-0.2-1.08-1.14-0.96-2 0.36-1.1 1.14-2.32 2.24-2.86 0.2-0.1 0.44-0.06 0.64-0.06 0.16 0.02 0.2 0.14 0.34 0.16 0.04 0.24 0.2 0.36 0.34 0.5zm-1.56 0.36c0.08 0.02 0.14-0.14 0.2-0.06-0.34 0.26-0.64 0.54-0.9 0.88 0.66-0.34 1.26-0.74 1.64-1.34-0.34 0.14-0.74 0.24-0.94 0.52zm-0.12 0.08c0.02 0.02 0-0.02 0 0zm-0.16 3.1c0.06 0.02 0.14-0.04 0.12 0.12 0.1-0.06 0.16-0.1 0.26 0 0.04-0.04-0.04-0.12 0.04-0.12 0.14 0 0.38-0.1 0.5-0.18-0.3 0.16-0.68 0.06-0.92 0.18zm3.38-1.72c0.04 0 0-0.02 0 0zm0 0c0 0.04-0.04 0.02 0 0zm-1.86 1.56c0.04-0.08 0.04 0.1 0 0zm6.86-3.24c-0.08-0.06-0.18-0.12-0.28-0.16-0.64 0.26-1.08 0.82-1.64 1.04-0.04 0.18-0.12 0.32-0.28 0.36-0.6 0.84-1.2 1.66-1.68 2.6-0.06 0.46-0.28 0.74-0.66 0.88-1-0.46-0.42-2.04-0.32-2.94 0.2-0.46 0.22-1.16 0.44-1.52 0.88 0.2 0.52 1.14 0.42 1.78 0.46-0.7 1.04-1.28 1.62-1.88 0.54-0.46 1.9-1.1 2.38-0.16zm-1.48-0.14c0.14 0.02 0.14-0.1 0.24-0.06-0.06-0.14 0.16-0.02 0.18-0.16-0.14 0.04-0.26 0.06-0.32 0.04-1.1 0.64-1.98 1.68-2.58 2.8 0.7-1 1.46-1.94 2.48-2.62zm0.48-0.2c0.02 0.02-0.02 0 0 0zm0.1 0.18c0 0.04-0.02 0.06-0.04 0.08 0.08-0.02 0.18-0.02 0.2-0.12-0.06 0.02-0.1 0.04-0.16 0.04zm-0.2 0.18c0.08 0 0.1-0.06 0.14-0.1-0.08-0.04-0.2 0-0.14 0.1zm-0.56 0.3c0.18-0.02 0.3-0.24 0.46-0.24-0.02-0.06 0.08-0.14-0.02-0.12-0.12 0.14-0.32 0.22-0.44 0.36zm0.28-0.08c-0.06 0.08 0.08-0.06 0 0zm-0.44 0.24c0.06-0.04 0.14-0.06 0.16-0.14-0.06 0.04-0.22 0.06-0.16 0.14zm-0.26 0.34c0.04-0.08 0.16-0.1 0.16-0.22h-0.06c0.02 0.12-0.18 0.14-0.1 0.22zm-0.2 0.16s0-0.02 0.02-0.02c0-0.02 0-0.06-0.04-0.04 0 0.02 0 0.06 0.02 0.06zm0.8-1.12c-0.02 0-0.04-0.02 0-0.02v0.02zm-0.7 0.42c0.02 0.02-0.02 0 0 0zm-2.8 0.54c0-0.08 0.1 0.02 0 0zm12.24-9.8c-0.1 0.02-0.04 0.06 0.02 0.08 0.06-0.02-0.04-0.04-0.02-0.08 0.04-0.04 0.1-0.02 0.16 0 0 0.04-0.04 0.04-0.02 0.1-0.1 0.04-0.18-0.04-0.22 0.04 0.04 0 0.18 0.12 0.22 0 0.04 0.04 0.08 0.06 0.1 0.12-0.16-0.06-0.4 0-0.46-0.14 0.04 0 0.08 0.04 0.12 0-0.02-0.1-0.14-0.02-0.2 0.02-0.06 0-0.02-0.1 0.04-0.08-0.04-0.08-0.28-0.02-0.38 0 0 0.04 0.14 0.06 0.08 0.08-0.1 0.06-0.1-0.12-0.24-0.1-0.04 0.06 0.08 0 0.04 0.08-0.1-0.04-0.36 0.1-0.36-0.08-0.08 0-0.04 0.12-0.1 0.14-0.06-0.02 0-0.12-0.02-0.14-0.1 0-0.06 0.02-0.04 0.08h-0.16c0-0.04 0.04-0.06 0.08-0.04-0.14-0.08-0.34-0.06-0.48 0 0.04 0.12 0.28-0.08 0.32 0.06-0.18 0.02-0.36 0-0.44 0.1-0.1-0.02-0.22-0.08-0.24 0.06-0.12-0.1-0.16 0.04-0.3-0.04-0.04 0.02-0.06 0.1-0.08 0.12 0.7-0.16 1.8-0.2 2.42-0.14 0.32 0.06 0.78 0.24 0.98 0.22 0.02 0.06 0.1 0.08 0.16 0.12 0.12-0.02-0.04-0.08 0.02-0.1 0.1 0 0.06 0.04 0.06 0.1 0.1 0.1 0.26 0.14 0.4 0.2-0.1-0.1-0.22-0.16-0.36-0.22 0.28 0 0.52 0.28 0.78 0.38 0.06-0.02-0.06-0.04-0.02-0.1 0.02 0.02 0.06 0.04 0.12 0.02-0.04-0.1-0.12-0.04-0.24-0.06 0-0.1-0.08-0.06-0.06-0.14 0.04 0 0.1 0 0.08-0.08 0.1 0.06 0.2 0.14 0.3 0.22 0.1-0.14-0.18-0.1-0.08-0.2-0.1-0.02-0.2-0.06-0.28-0.1 0.04 0.08-0.12 0.1-0.04 0.22-0.06-0.1-0.12-0.08-0.14-0.16 0.04-0.06 0.06 0 0.12 0.02 0-0.08 0.04-0.08 0.02-0.16-0.04 0-0.06 0.04-0.06 0.08-0.04 0-0.08-0.04-0.12-0.06-0.02 0.06 0.04 0.06 0.04 0.12-0.1-0.06-0.3-0.04-0.3-0.2 0.06 0.04 0.12 0.08 0.2 0.1 0.08-0.08 0-0.12 0.14-0.04 0.06-0.04-0.1-0.08-0.08-0.16 0.14 0.08 0.3 0.1 0.34 0.28 0.14-0.06 0.24 0.12 0.34 0.18 0 0.06 0 0.1-0.04 0.1-0.02 0.06 0.08 0.02 0.06 0.1 0.04 0 0.06-0.02 0.06-0.08 0.72 0.58 0.96 1.36 1.22 2.34-0.02 0.32 0 0.82-0.1 1.22-0.06-0.1 0.04-0.18 0-0.3-0.06 0.1-0.12 0.3-0.06 0.42-0.2 0.12-0.24 0.48-0.3 0.7 0.04-0.02 0.02-0.08 0.08-0.06-0.12 0.22-0.24 0.48-0.44 0.68 0.02-0.18 0.1-0.2 0.16-0.36-0.2 0.18-0.4 0.32-0.5 0.58-0.02 0.02 0 0.02 0 0 0.06-0.06 0.04 0.06 0.12 0.02 0.08-0.08 0.08-0.2 0.2-0.22-0.06 0.18-0.2 0.32-0.32 0.44-0.02-0.02-0.06-0.02-0.06-0.04-0.08 0.02-0.12 0.08-0.18 0.14 0.08 0.08 0.12-0.08 0.2-0.08-0.04 0.1-0.08 0.12-0.14 0.12 0.02 0.18-0.16 0.28-0.32 0.28-0.12 0.1-0.18 0.28-0.36 0.36 0-0.04 0.02-0.04 0.02-0.06-0.06 0-0.08 0.04-0.12 0.08 0.08 0.04 0.24-0.04 0.32 0.04-0.08 0.02-0.18 0.08-0.26 0.16 0.06-0.06 0.04-0.14-0.04-0.16-0.02 0.02-0.04 0.04-0.04 0.1-0.1 0.04 0-0.08-0.08-0.08-0.1 0.08 0.08 0.08 0.06 0.18-0.1-0.02-0.1 0-0.2 0.08-0.1-0.02 0.02-0.04 0-0.1-0.12 0.06-0.22 0.16-0.32 0.26 0.08 0 0.06 0.12 0.14 0.14-0.02 0.14-0.16 0.14-0.26 0.2 0-0.1 0.08-0.1 0.1-0.14-0.06-0.1-0.2 0.12-0.1 0.14-0.02 0.04-0.04 0.08-0.12 0.1 0-0.06 0.02-0.06 0.02-0.1-0.04 0-0.14 0.18-0.18 0.06 0.08 0.02 0.06-0.04 0.1-0.06-0.08-0.02-0.12 0-0.1 0.06-0.22 0.02-0.34 0.3-0.56 0.34-0.04 0.06 0 0.04 0 0.1-0.28 0.06-0.44 0.24-0.56 0.46-0.06-0.1-0.06 0.02-0.16 0.02 0-0.04 0-0.08-0.02-0.1-0.36 0.22-0.76 0.46-1.12 0.74-0.08 0.02-0.06-0.04-0.1-0.06-0.04 0.02 0.02 0.14-0.08 0.1v0.2c0.1 0-0.02-0.1 0.04-0.12 0.06 0 0 0.12 0.04 0.14 0.04-0.16 0.1 0.04 0.16-0.04 0.04 0.08-0.12 0.08-0.2 0.08 0 0.08-0.18 0.12-0.28 0.18 0.06-0.08 0.16-0.2 0.12-0.32-0.14 0-0.12 0.14-0.22 0.14 0-0.04 0-0.06 0.02-0.08-0.1 0-0.06 0.1-0.2 0.06-0.02 0.08 0.08 0.02 0.06 0.1-0.06 0-0.08 0.04-0.1 0.06 0 0.1 0.1 0.1 0.2 0.14-0.1 0.12-0.2 0.08-0.3 0.16-0.06-0.04 0.02-0.16 0.1-0.14 0-0.08-0.04-0.08-0.02-0.14-0.08 0.04-0.04 0.08-0.12 0.12-0.06 0-0.06-0.04-0.06-0.1-0.1 0.04-0.14 0.12-0.2 0.2-0.04 0.04-0.04-0.04-0.08-0.06-0.06 0.16 0.22 0.14 0.3 0.14 0 0.04-0.02 0.04-0.02 0.08 1.48 0.74 2.88 1.6 3.72 3.02 0.02 0 0.04 0.02 0.06 0.04 0.3 0.74 0.58 1.54 0.42 2.3-0.08 0-0.06 0.04-0.1 0.12-0.06-0.1-0.04-0.3-0.14-0.38 0.1-0.04 0.04 0.08 0.1 0.08 0.06-0.2-0.2-0.44-0.08-0.76-0.04 0.12 0.08 0.24 0.04 0.36 0.12-0.08-0.04-0.36 0.02-0.44-0.16-0.34-0.16-0.7-0.34-1-0.02-0.08 0.04-0.06 0.06-0.08-0.04-0.06-0.08-0.1-0.12-0.16-0.06 0 0.02 0.04 0 0.08-0.44-0.76-1.04-1.36-1.8-1.8-0.44-0.38-0.98-0.64-1.52-0.82 0-0.04-0.04-0.06-0.02-0.1-0.24 0.06-0.34-0.18-0.46-0.1-0.12-0.12-0.34-0.12-0.46-0.08 0.04-0.08-0.04-0.08-0.06-0.14-0.1 0.08 0.12 0.16-0.02 0.2 0.04 0.04 0.14-0.02 0.22-0.02 0 0.04-0.02 0.06-0.04 0.06 0.08 0.08 0.24 0.08 0.3 0.18 0.06 0.02 0.04-0.06 0.08-0.08 0.04 0.04 0.1 0.04 0.12 0.08 0 0.08-0.02 0-0.08 0.02 0.26 0.2 0.5 0.28 0.8 0.46-0.02-0.08 0.1-0.04 0.12-0.06 0.08 0.04-0.08 0.08 0 0.12 0.08 0.1 0.28 0.08 0.3 0.2 0.08 0-0.04-0.06 0.02-0.06 0.08 0.06 0.18 0 0.24 0.08-0.08 0.02-0.12-0.04-0.16 0 0.08 0.1 0.14 0.2 0.32 0.18 0.26 0.26 0.54 0.5 0.92 0.64 0.04 0.08 0.04 0.18 0.14 0.18 0 0-0.02 0-0.02 0.04-0.02 0-0.04 0.02-0.04 0.04 0.02 0.04 0.04 0 0.04-0.04 0.3 0.1 0.3 0.48 0.6 0.58 0.04 0.1 0.1 0.16 0.18 0.22-0.02 0.04-0.04 0.04-0.06 0.08 0.1 0.1 0.18 0.22 0.22 0.38h0.12c-0.08-0.1-0.04-0.18-0.1-0.32 0.1 0.08 0.12 0.22 0.2 0.32 0 0.06-0.14 0.06-0.16 0.02 0.04 0.08 0.06 0.1 0.06 0.2 0.14-0.08 0.26 0.08 0.16 0.24-0.02 0-0.04-0.02-0.04-0.02 0-0.08 0.1-0.14 0-0.18-0.02 0.08 0 0.04-0.06 0 0.02 0.06 0.02 0.14 0.06 0.18 0 0.04 0 0.06 0.02 0.1 0-0.04 0.06-0.04 0.06-0.1 0.1 0.02-0.02 0.14-0.04 0.18 0.1 0.2 0.12 0.4 0.16 0.66-0.06 0-0.04-0.1-0.1-0.04s0.12 0.28-0.06 0.28c-0.58-2.52-2.66-3.74-4.9-4.64-0.16 0.1-0.36 0.12-0.5 0.22-0.02-0.04-0.06-0.06-0.06-0.12 0.12-0.02 0.2-0.1 0.26-0.02 0.08 0 0.08-0.06 0.1-0.1-0.02-0.06-0.12-0.04-0.16-0.06-0.08 0.08-0.16 0.08-0.2 0.14-0.1 0-0.1-0.1-0.22-0.08-0.04 0.04 0 0.1-0.04 0.14h-0.12c-0.02 0.04-0.02 0.1-0.1 0.1 0.12 0.14 0.24-0.12 0.4-0.1v0.08c-0.02 0-0.02 0-0.02 0.02 0.02 0 0.02 0 0.02-0.02 0.04 0 0.06-0.04 0.08 0-0.04 0.08-0.16 0.08-0.24 0.12-0.1 0 0-0.04 0-0.08-0.1 0-0.1 0.1-0.12 0.16-0.24 0.08-0.72 0.06-0.66 0.36-0.08-0.02-0.04 0.06-0.1 0.06 0.02 0.34-0.2 0.62-0.2 0.9-0.14 0.12-0.1 0.46-0.24 0.54 0.02 0.28-0.22 0.52-0.2 0.84-0.2 0.18-0.06 0.46-0.26 0.68 0 0.36-0.28 0.76-0.22 1.06-0.04 0.06-0.06 0.12-0.1 0.18-0.04 0.1 0.08 0.08 0.06 0.18-0.16 0.56-0.28 1.16-0.64 1.62 0.04 0.2-0.04 0.34-0.1 0.58-0.2 0.02-0.36-0.2-0.5-0.2-0.02-0.08-0.04-0.24-0.2-0.22-0.2-0.42 0.14-0.68 0.12-1.06 0.02-0.04 0.12-0.02 0.12-0.04 0.54-1.7 0.98-3.24 1.18-5.1-0.1-0.1-0.3-0.1-0.4-0.2 0.02-0.02 0.02-0.08 0.06-0.1-0.02-0.06-0.14-0.04-0.16-0.08 0-0.06 0.1-0.02 0.12-0.06-0.24-0.12-0.46-0.42-0.56-0.72-0.04-0.04-0.04 0.02-0.12 0-0.42-0.2-0.02-0.74 0.14-0.94 0.18 0 0.32-0.18 0.48-0.12 0.16-0.18 0.46-0.12 0.68-0.02 0.36-2.14 0.26-4.58 0.1-6.7-0.04 0-0.02 0.04-0.02 0.08-0.26-0.02-0.24 0.28-0.44 0.34-0.02 0.24-0.22 0.26-0.28 0.46-0.1-0.02-0.12 0-0.2 0-0.18-0.2-0.3-0.42-0.22-0.8 0.2-0.54 0.52-0.98 1-1.26 0.26-0.22 0.64-0.4 0.96-0.6 0.06-0.02 0.06 0.02 0.12 0 0.28-0.14 0.62-0.24 0.94-0.38 0.72-0.36 1.5-0.56 2.28-0.8 0.02-0.02 0.1-0.02 0.14-0.02 0.82-0.14 1.66-0.14 2.56 0.02 0.02 0.08-0.1 0.04-0.08 0.12-0.2-0.06-0.28-0.06-0.56-0.04 0.06 0.12 0.26 0.02 0.36 0.12 0 0.02 0.02 0.02 0.04 0.04zm-0.86-0.26c-0.06 0.08 0.08-0.06 0 0zm-0.48 0.02c-0.28 0.14-0.44-0.04-0.68 0.14-0.06-0.02-0.14-0.02-0.2-0.04-0.08 0.06-0.16 0.04-0.24 0.12v-0.08c-0.14 0.04-0.16 0.08-0.28 0.1 0.04 0.26 0.52-0.12 0.68 0.04 0-0.02-0.02-0.04-0.02-0.06 0.1-0.04 0.1-0.02 0.18 0.02 0.02-0.02 0-0.06 0.02-0.08 0.38 0.02 0.98-0.08 1.46-0.02-0.02-0.16-0.22-0.06-0.24-0.18-0.14 0.18-0.5 0.04-0.68 0.04zm-1.9 0.34c-0.04 0.02 0 0.1-0.06 0.1-0.34-0.04-0.38 0.16-0.62 0.14 0.02 0.14-0.18 0.04-0.16 0.16 0.06 0.04 0.12-0.04 0.18 0.04 0-0.06 0-0.1 0.06-0.1 0.36-0.22 0.8-0.14 1.08-0.38-0.04-0.04-0.12 0.02-0.16-0.04-0.04 0.06-0.2 0.08-0.32 0.08zm2.34-0.04c-0.06 0.08 0.08-0.04 0 0zm-1.2 0.08c0.1 0.04 0.12 0 0.24 0-0.02-0.12-0.2-0.06-0.24 0zm-0.86 0.08c-0.02 0-0.04 0-0.04 0.02 0.02 0 0.04 0 0.04-0.02zm0.38 0.1c-0.02 0-0.06 0-0.06 0.02 0.02 0 0.04 0 0.06-0.02zm-0.4 0.18c0.12 0 0.18-0.08 0.32-0.06v-0.1c-0.1 0.04-0.12 0.02-0.18 0.08 0.04-0.06-0.04-0.12-0.04-0.06 0.06 0.06-0.14 0.02-0.1 0.14zm-3.16 8.3c-0.06 0.08 0.08 0.16-0.02 0.2 0-0.04 0-0.08-0.08-0.08 0 0.22-0.04 0.34-0.04 0.54 0.16 0.02 0.24 0.06 0.38 0.06 0.3-0.72 0.46-1.48 0.78-2.22 0.02-0.12 0.02-0.14-0.02-0.2 0.52-1.06 0.8-2.34 1.24-3.5 0.1 0 0.1 0.06 0.18 0.04 0.04 0 0.06-0.04 0.12-0.04 0.24 0.04 0.48 0.08 0.58 0.26-0.02 0.02 0 0.22 0.02 0.3-0.34 0.84-0.72 1.8-1.02 2.76-0.18 0.2-0.24 0.48-0.36 0.68 0.04 0 0.06-0.02 0.1-0.02-0.04 0.06-0.1 0.1-0.14 0.14-0.06 0.48-0.34 0.72-0.36 1.24-0.18 0.04-0.06 0.44-0.28 0.5 0.06 0.08 0 0.12 0 0.22 0.32 0.1 0.62 0.16 0.86 0.32 0.06-0.14 0.14 0.08 0.3 0.02 0.06 0-0.06-0.1 0.02-0.1 0.32-0.02 0.46-0.2 0.76-0.24 0.16-0.14 0.36-0.26 0.6-0.36 0.02-0.04 0.02-0.1 0.08-0.1 0.72-0.36 1.34-0.8 2.04-1.24 0-0.02 0-0.06 0.02-0.06 0.18-0.08 0.24-0.26 0.44-0.3 0.68-0.6 1.46-1.24 2.06-1.96 0.1-0.14 0.18-0.3 0.3-0.44 0.04-0.02 0.12-0.04 0.16-0.08 0.3-0.4 0.6-1.22 0.54-1.98-0.5-2.04-2.38-2.86-4.64-2.68-0.54 0.06-1 0.22-1.56 0.34-0.72 0.26-1.48 0.54-2.14 0.88-0.26 0.12-0.46 0.34-0.78 0.42-0.1 0.14-0.26 0.24-0.36 0.36-0.04-0.04-0.04 0.02-0.1 0.04 0 0.2 0.16 0.38 0.2 0.6 0.02 0.1 0 0.24 0 0.36 0.04 0.34 0.1 0.7 0.12 1 0.02 0.18 0.06 0.4 0.06 0.56 0 0.02-0.08 0.06-0.08 0.08l0.02 0.1c0.04 0.18 0.08 0.46 0.06 0.64 0 0.04 0.08 0.12 0.02 0.16-0.06-0.02-0.02-0.12-0.08-0.1 0.08 0.08-0.06 0.14 0 0.18 0-0.02 0.08 0.04 0.1 0.04-0.06 0.06-0.1 0.14-0.14 0.24 0.06-0.02 0.1-0.08 0.16 0 0.02 0.14-0.12 0.12-0.1 0.26 0 0.08 0.18 0.16 0.06 0.22-0.08 0 0.02-0.14-0.06-0.12-0.08 0.24 0.12 0.32 0.08 0.56-0.02 0.04-0.1-0.06-0.1 0.04-0.02 0.08 0.1 0.06 0.1 0.12-0.04 0.02-0.06 0.02-0.1 0 0.1 0.1 0 0.14-0.02 0.28 0.02 0.04 0.08 0.02 0.08 0.08-0.06 0.02-0.1 0.08-0.08 0.2 0.04-0.04 0.12 0.08 0.02 0.12 0.02-0.06 0-0.08-0.04-0.08 0.02 0.22-0.02 0.54-0.06 0.82 0.08 0.02 0.04-0.08 0.1-0.08zm3.04-8.26c0.04 0 0.06-0.02 0.08-0.06-0.04 0-0.1 0-0.08 0.06zm-1.38 0.14c0.14-0.04 0.26-0.1 0.34-0.18-0.12 0.04-0.28 0.06-0.34 0.18zm6.34 0.04c0-0.06-0.06-0.04-0.08-0.06 0 0.04 0.02 0.06 0.08 0.06zm-6.48-0.02v0.04h0.04l0.02-0.02v-0.04h-0.04s0 0.02-0.02 0.02zm-0.16 0.1c0.06-0.02 0.08-0.06 0.14-0.08-0.04 0-0.06-0.04-0.1-0.02-0.02 0.04-0.04 0.06-0.04 0.1zm0.98-0.06c-0.02 0.02-0.04 0-0.04 0.04 0-0.02 0.04-0.02 0.04-0.04zm5.36 0.06c-0.04 0-0.04-0.04-0.08-0.02-0.04 0.04 0.08 0.06 0.08 0.02zm0.56 0.2c0.06 0.06 0.04-0.08 0 0-0.04-0.02-0.06-0.04-0.12-0.04-0.02 0.08 0.02 0.1 0.06 0.12 0-0.04 0.08-0.02 0.06-0.08zm-8.04 0.06c0.04 0.04 0.12 0 0.14-0.06-0.08-0.02-0.1 0.04-0.14 0.06zm0.66-0.04c0.02 0.08 0.02-0.08 0 0zm7.48 0.02h0.04v-0.04h-0.04v0.04zm-8.22 0.08c0.04 0.06 0.06-0.1 0 0zm8.12 0.02c0.04-0.02 0.08 0.06 0.1 0-0.06-0.02-0.08-0.08-0.1 0zm0.22 0.1c-0.02-0.02-0.1-0.06-0.1 0 0 0 0.08 0.04 0.1 0zm0.16 0.24c0-0.08-0.08-0.2-0.14-0.16 0.08 0.02 0.06 0.14 0.14 0.16zm-0.02-0.16c0.02 0.02-0.02 0 0 0zm0.1 0.22c0 0.02-0.02 0 0 0zm0.18 0.24c0-0.06-0.02-0.1-0.08-0.12 0 0.06 0.02 0.12 0.08 0.12zm-9.06 6.82c0.08-0.02 0-0.12 0 0-0.1-0.22 0.08-0.6-0.02-0.82 0.02-0.04 0.06-0.04 0.08 0-0.08-0.78 0.1-2.2-0.08-3.12 0.02 0 0 0.06 0.04 0.08 0-0.18-0.04-0.3-0.06-0.42 0.02 0 0.06 0 0.06-0.02-0.02-0.06-0.08-0.04-0.08-0.12 0-0.06 0.04-0.06 0.06-0.1-0.12 0.04 0-0.16-0.04-0.22-0.04 0.06 0-0.16-0.02-0.22h0.04v-0.04c-0.04-0.02-0.04 0-0.04 0.04-0.08-0.38-0.06-0.72-0.16-1.06 0.04 0.64 0.08 1.66 0.18 2.46-0.02 0.04 0 0.14-0.04 0.18 0.1 1.3-0.06 2.6-0.1 3.76-0.06 0.16-0.04 0.26-0.04 0.44 0.26-0.1 0.12-0.58 0.22-0.82zm-0.02-5.24c0.02 0.08 0.06-0.1 0 0zm0.2 2.24c-0.02 0-0.04 0-0.04 0.02 0.02 0 0.04 0 0.04-0.02zm8.3 0.66c0.02-0.04 0.04-0.06 0-0.08 0 0.02-0.04 0.06 0 0.08zm-8.36 0.02c0.06 0 0.06-0.12 0-0.08v0.08zm8.46-0.08c-0.02 0-0.04 0-0.04 0.02 0.02 0 0.04 0 0.04-0.02zm-8.36 0.24s0-0.02 0.02-0.02c0-0.02-0.02-0.06-0.06-0.04 0.02 0.02 0 0.06 0.04 0.06zm7.94 0.24c0 0.02-0.02 0 0 0zm-0.22 0.16c-0.02 0-0.06 0-0.06 0.02 0.02-0.02 0.04 0 0.06-0.02zm-0.12 0.06c0.02 0.08 0.06-0.1 0 0zm-0.36 0.08c0.02 0.08 0.02-0.1 0 0zm-0.22 0.02c0.02 0.1 0.02-0.1 0 0zm0.04 0c0.02 0.02 0-0.02 0 0zm-0.02 0.14c0.04 0 0.1 0 0.1-0.06-0.06-0.02-0.08 0.02-0.1 0.06zm0.22-0.04c0.02 0-0.02-0.02 0 0zm-0.32 0.08c0-0.04-0.02-0.06-0.04-0.08-0.02 0.04 0 0.06 0.04 0.08zm-7 0.02c0.08 0.02 0.08-0.1 0-0.06v0.06zm6.88 0.16h0.04c0-0.04 0-0.06-0.04-0.04v0.04zm-0.26 0.08c0.04 0 0.06-0.02 0.06-0.06-0.04 0-0.06 0.02-0.06 0.06zm0.08 0.04h0.06v-0.04h-0.06v0.04zm0.08-0.02c0.02 0.1 0.02-0.1 0 0zm-0.36 0.12c0.06 0 0.08-0.04 0.1-0.08-0.06 0-0.08 0.04-0.1 0.08zm0.14-0.04c0.04 0.06 0.06-0.1 0 0zm-0.04 0.04c0 0.06-0.04 0.06-0.02 0.14 0.1-0.04 0.16-0.12 0.2-0.22-0.1 0-0.08 0.14-0.18 0.08zm-6.56 0c-0.02 0-0.06 0-0.06 0.02 0.02 0 0.06 0 0.06-0.02zm6.32 0.04c0.02 0.02-0.02 0 0 0zm0 0.06v0.04h0.04c0-0.02 0-0.02 0.02-0.02v-0.04h-0.04s0 0.02-0.02 0.02zm0.64 0.04h0.04v-0.04h-0.04v0.04zm-0.54 0.1c0.06 0.02 0.04-0.06 0.06-0.08h-0.06v0.08zm-0.22 0c-0.04 0.14 0.1 0 0 0zm-0.02 0.02c-0.02 0-0.06 0-0.06 0.02 0.02 0 0.04 0 0.06-0.02zm0.18 0.02c0.02 0.02 0 0 0 0zm-0.06 0.04s-0.02-0.02 0 0zm-0.22 0.04c-0.12 0.02-0.26 0.12-0.36 0.24 0.14-0.02 0.2-0.12 0.3-0.16 0.06 0 0.06 0.06 0.06 0.12 0.08-0.02 0.06-0.14 0.18-0.12 0 0.02-0.04 0.02-0.04 0.04 0.04 0.02 0.14-0.06 0.04-0.04v-0.08c-0.08 0-0.14 0.1-0.18 0 0-0.04-0.02 0 0 0zm-0.08 0.2c-0.08 0.02-0.12 0.06-0.14 0.14 0.06-0.04 0.14-0.04 0.14-0.14h0.02c0-0.02 0.02-0.02 0.02-0.02v-0.06c-0.04 0-0.04 0.04-0.04 0.08zm-0.38 0.12h0.04v-0.06h-0.04v0.06zm0.14 0c0.02 0-0.02-0.02 0 0zm-0.38 0.36c-0.04-0.04-0.1-0.04-0.08 0.04 0.04 0 0.06-0.02 0.08-0.04 0.16-0.04 0.36-0.2 0.36-0.32-0.02 0.06-0.1 0.04-0.12 0.1-0.02-0.02-0.04-0.06-0.02-0.1-0.08 0-0.2 0.06-0.12 0.1 0-0.04 0.02-0.06 0.06-0.04 0 0.08 0.04 0.1-0.02 0.14-0.02-0.14-0.04 0.04-0.08 0.04-0.02 0-0.1-0.08-0.12-0.02 0.04 0.02 0.1 0.06 0.06 0.1zm0.46-0.22c0 0.02-0.02-0.02 0 0zm-0.74 0.26c0.06-0.04 0.14-0.04 0.14-0.14-0.06 0.02-0.14 0.04-0.14 0.14zm0.52-0.12c-0.06 0.08 0.08-0.06 0 0zm-0.6 0.18c0-0.04 0.04-0.06 0.04-0.08-0.06-0.02-0.1 0.06-0.04 0.08zm0.18 0.06c0-0.04 0.08-0.02 0.06-0.1-0.06-0.02-0.1 0.08-0.06 0.1zm0.08 0.02c0.08 0 0.1-0.06 0.14-0.12-0.06 0.02-0.12 0.06-0.14 0.12zm-0.48 0.08c0.1-0.06 0.08-0.08 0.22-0.1-0.06-0.14-0.3 0-0.22 0.1zm-0.24 0.04c-0.06 0.04 0.04 0.04-0.02 0.06-0.08 0.02-0.22 0-0.24 0.18 0.18-0.08 0.28-0.2 0.44-0.2 0.02-0.06 0.02-0.12-0.04-0.12 0 0.08-0.1 0.06-0.14 0.08zm-0.3 0.08c0.02 0.02 0 0 0 0zm0.52 0c-0.06 0.08 0.08-0.04 0 0zm-0.68 0.1c0.04 0 0.06-0.02 0.06-0.04-0.04 0-0.06 0.02-0.06 0.04zm0.1 0.14c0.06 0.02 0.12-0.12 0.04-0.12 0.02 0.08-0.08 0.04-0.04 0.12zm0.34-0.02c0-0.04 0.06-0.02 0.06-0.06-0.06-0.04-0.14 0.04-0.06 0.06zm-0.4 0.02c0.02 0.02 0 0 0 0zm0.24 0.04c-0.02 0 0 0.02 0 0 0.04-0.02 0-0.04 0 0zm-0.72 0.28c0.16-0.06 0.42-0.14 0.42-0.28-0.12 0.12-0.34 0.12-0.42 0.28zm0.62-0.22c0.02 0.02 0 0 0 0zm-4.42 0.06c-0.02-0.02-0.06-0.04-0.06 0-0.02 0.04 0.08 0.04 0.06 0zm4.34 0c0.02 0.06 0.06-0.1 0 0zm-0.52 0.04c0.02 0.02 0-0.02 0 0zm-1.08 0.72c0.52-0.1 0.68-0.34 1.04-0.58-0.4 0.14-0.66 0.42-1.04 0.58zm1.12-0.48c0 0.02-0.02-0.02 0 0zm0.18 0c-0.02 0-0.04 0-0.04 0.02 0.02 0 0.04 0 0.04-0.02zm-0.02 0.12c0.02 0.02-0.02-0.02 0 0zm-1.18 0.06c0.02 0-0.02-0.02 0 0zm-1.14 0.02c0.02 0-0.02-0.02 0 0zm0.18 0.02c0.06 0.1 0.02-0.06 0 0zm1.6 0.02c0.02 0.02 0 0 0 0zm-0.7 0.02c0.02 0.02 0 0 0 0zm-1.2 0.24c-0.06 0.08 0.08-0.06 0 0zm1.38 0.06h0.04v-0.06h-0.04v0.06zm-1.28 0c0.02 0-0.02-0.02 0 0zm-2.76 0.24c-0.08-0.1-0.3-0.1-0.4 0 0.32 0.1 0.58 0.26 1 0.26-0.02-0.16 0.08-0.22 0.06-0.4-0.28 0-0.46 0.02-0.66 0.14zm0.7 0.26h0.16c-0.02-0.18 0-0.2 0.02-0.38-0.24 0-0.1 0.28-0.18 0.38zm0.32-0.24c0.04 0.02 0.1 0.04 0.14 0.08-0.02-0.1 0.08-0.08 0.06-0.18-0.14 0.02-0.12 0.1-0.2 0v0.1zm2.36-0.08c-0.04 0.02-0.08-0.06-0.1 0 0.04 0.02 0.08 0.08 0.1 0zm0.3 0.12c0-0.04-0.02-0.06-0.06-0.06 0 0.04 0 0.08 0.06 0.06zm-2.34-0.04c-0.02 0-0.06 0-0.06 0.02 0.02 0 0.06 0 0.06-0.02zm-0.34 0.2c0.06 0.02 0.06-0.16 0-0.12v0.12zm1.26-0.12c-0.04-0.02-0.08 0-0.08 0.02-0.04 0.08 0.12 0.02 0.08-0.02zm-1.18 0.04c0.02 0.1 0.02-0.1 0 0zm1.08 0.1c0-0.06-0.02-0.1-0.06-0.1 0 0.06 0.02 0.08 0.06 0.1zm0.24-0.08c0.06 0.1 0.02-0.08 0 0zm-0.38 0.06h0.04v-0.06h-0.04v0.06zm0.32 0.12c0.1 0 0.12-0.04 0.2 0 0-0.08 0.06-0.06 0.12-0.06-0.04-0.12-0.28-0.02-0.32 0.06zm-0.36 0.1c0.1 0.02 0.28 0 0.34-0.1-0.1 0.02-0.24 0.02-0.34 0.1zm1.24 0c0-0.06-0.02-0.08-0.06-0.08-0.02 0.04-0.02 0.1 0.06 0.08zm-2.14 0.04h0.04v-0.04h-0.04v0.04zm0.86-0.02c0.02 0.08 0.04-0.1 0 0zm0.46 0c0.06 0.08 0.02-0.08 0 0zm-1.4 0.14c-0.02-0.06 0.04-0.16-0.06-0.14 0 0.06 0 0.14 0.06 0.14zm-0.22-0.1c0.02 0.1 0.02-0.1 0 0zm1.28 0.08c0.04 0 0.02 0.06-0.02 0.04 0.02 0.08 0.06 0.06 0 0.12 0.14-0.04 0.24-0.12 0.28-0.26-0.1 0.02-0.2 0.04-0.26 0.1zm2.1-0.06c0.08 0.08 0.06-0.08 0 0zm-3.74 0.08c0 0.12 0.04 0.04 0.14 0.04v-0.06c-0.08-0.02-0.08 0.04-0.14 0.02zm0.32 0.04c0-0.06-0.04-0.08-0.08-0.06-0.02 0.06 0.04 0.06 0.08 0.06zm1.12 0.08c0.08 0 0.1-0.04 0.1-0.08-0.02 0-0.02-0.04-0.04-0.04 0.02 0.08-0.04 0.08-0.06 0.12zm2.68-0.04c-0.02 0-0.06-0.02-0.06 0.02 0.02 0 0.06 0 0.06-0.02zm-4.26 0.06c0 0.02-0.02 0 0 0zm0.4 0.02h0.02v-0.04h-0.02v0.04zm0.08-0.02c-0.06 0.08 0.08-0.06 0 0zm1.18 0.06c0.02-0.02 0.06 0 0.04-0.06h-0.02c0 0.02-0.02 0.04-0.02 0.06zm2.84 0.06c0.08 0.08 0.08-0.08 0 0zm0.24 0.12c0.02-0.04-0.06-0.1-0.06-0.04 0.04 0 0.02 0.06 0.06 0.04zm0.16-0.02c0.02 0.1 0.02-0.1 0 0zm-0.12 0.04c0 0.02-0.02 0 0 0zm-3.48 0.06c0.02 0.08 0.02-0.1 0 0zm3.66 0.02c0.04 0.08 0.04-0.1 0 0zm-4.66 0.84h0.02c0.02-0.08 0-0.12-0.04-0.14 0.2-0.06-0.04-0.26 0.08-0.34-0.02 0.04-0.02 0.08 0.02 0.08 0.02-0.12 0.04-0.24 0.08-0.34-0.08 0.02-0.1-0.04-0.18-0.02-0.02 0.08 0.04 0.24-0.08 0.28 0.06 0.56-0.16 1.06-0.28 1.72 0.12-0.04 0.04-0.32 0.2-0.3 0-0.06-0.06-0.04-0.04-0.12 0.1 0.02 0.16-0.12 0.1-0.16-0.02 0.02-0.04 0.14-0.06 0.08 0.04-0.28 0.22-0.58 0.18-0.74zm4.9-0.7c0.02-0.06-0.08-0.08-0.1-0.04 0.06 0 0.04 0.06 0.1 0.04zm-4.5 0.28c0.06 0.02 0.06-0.12 0-0.08v0.08zm0.38-0.04c0.02 0.02-0.02 0 0 0zm4.52 0c-0.1-0.08-0.06 0.08 0 0zm-4.96 0.08c0.02 0.02 0-0.02 0 0zm0.44 0.1h0.04v-0.06h-0.04v0.06zm4.8 0.12c0.02 0-0.02-0.02 0 0zm0.04 0.02h0.06v-0.04h-0.06v0.04zm-5.04 0.26c0.04 0.08 0.04-0.1 0 0zm5.48 0c-0.02 0.02-0.04 0-0.04 0.04 0.02-0.02 0.04-0.02 0.04-0.04zm0.24 0.18c0-0.02-0.04-0.04-0.04 0h0.04zm-5.8 0.12c0 0.02-0.02-0.02 0 0zm-0.04 0.24c-0.02 0-0.04 0-0.04 0.02 0.02 0 0.04 0 0.04-0.02zm6.98 0.32c-0.02 0-0.06 0-0.06 0.02 0.02-0.02 0.06 0 0.06-0.02zm-7.66 0.06v0.06h0.06c0.02-0.04 0.02-0.06-0.02-0.08-0.02 0.02-0.02 0.04-0.04 0.02zm0.52 0.04c0.02 0-0.02-0.02 0 0zm6.56-0.04c-0.02 0.14 0.1 0.02 0 0zm0.1 0.04c0.02 0.08 0.02-0.08 0 0zm-7.2 0.08c-0.02 0.14 0.1 0.02 0 0zm7.22 0.04c-0.02 0-0.04 0-0.04 0.02 0-0.02 0.04 0 0.04-0.02zm0.12 0.14h0.04v-0.06h-0.04v0.06zm-7.48 0c-0.02 0.06 0.12 0.1 0.12 0.02-0.04-0.02-0.08-0.08-0.12-0.02zm8 0c-0.06-0.1-0.02 0.08 0 0zm0.04 0.18c0.02 0.02-0.02 0 0 0zm-0.4 0.08c0.02 0.02 0-0.02 0 0zm0.42 0.04c0.04 0.08 0.08-0.02 0.02-0.04 0 0.02-0.02 0.02-0.02 0.04zm-7.48 0.04c0.02 0-0.02-0.02 0 0zm7.6 0.2c0.02 0.06 0 0.16 0.08 0.18-0.04-0.06 0-0.16-0.08-0.18 0.02-0.1-0.06 0 0 0zm-8.24 0.06c0.02-0.04 0.04-0.04 0.04-0.06-0.04-0.02-0.1 0.04-0.04 0.06zm-0.08 0.22c0.08 0.02 0.08-0.14 0.04-0.18 0.02 0.1-0.06 0.1-0.04 0.18zm8-0.08c0.04 0.1 0.04-0.1 0 0zm-7.92 0.08h0.04v-0.06h-0.04v0.06zm8.02 0.14c0-0.06-0.02-0.1-0.04-0.12-0.02 0.06-0.02 0.12 0.04 0.12zm-8.14 0c0.04 0.1 0.04-0.1 0 0zm0.08 0c0.02 0.02-0.02-0.02 0 0zm8.1 0.14c-0.02 0 0-0.12-0.04-0.12-0.02 0.06 0.02 0.2 0.04 0.12zm-8.2 0.12c-0.02 0-0.04 0-0.04 0.02 0.02 0 0.04 0 0.04-0.02zm8.2 0.1c0 0.02-0.02-0.02 0 0zm0.26 0.2h0.04v-0.06h-0.04v0.06zm-8.58 0.16c0.02 0.02 0 0 0 0zm-0.04 0.12h0.04v-0.04h-0.04v0.04zm7.98-15.66c-0.02 0.02-0.14 0.06-0.14 0-0.02-0.06 0.12-0.1 0.14-0.04v0.04zm-0.22 0c0.08-0.06-0.06 0.08 0 0zm0.3 0.04c-0.02-0.06 0.06-0.08 0.1-0.04-0.02 0.04-0.06 0.04-0.1 0.04zm-0.08-0.04c0.08 0-0.02 0.1 0 0zm0.2 0.02c0.02 0.02-0.02 0 0 0zm-0.56 0.02c0.02 0.02 0 0 0 0zm0.68-0.02c0 0.06 0 0.1-0.02 0.12-0.06 0-0.06-0.02-0.1-0.02 0-0.06 0.06-0.08 0.12-0.1zm0.04 0c0 0.02 0.08 0.04 0.06 0.12-0.04 0-0.06-0.04-0.06 0 0-0.02-0.02-0.08 0-0.12zm-0.28 0.02c0 0.04 0 0.08 0.02 0.08-0.02 0.08-0.1-0.08-0.02-0.08zm-3.04 0.06c0.02-0.1 0.02 0.06 0 0zm3.42 0.02c0.02-0.04 0.06-0.02 0.06 0-0.02 0.04-0.02 0-0.06 0zm-0.62 0.04c0 0.04-0.02 0.04-0.02 0.08-0.08 0-0.06-0.1 0.02-0.08zm0.04 0c0.08-0.02 0.06 0.02 0.12 0.02-0.04 0.02-0.04 0.1-0.12 0.12 0-0.1-0.02-0.08 0-0.14zm0.74 0.02c0-0.02 0.04-0.02 0.04-0.02-0.02 0-0.04 0-0.04 0.02zm0.06 0.02c0-0.04 0.04-0.02 0.08-0.02 0 0.02-0.04 0.02-0.08 0.02zm-0.26 0.14c-0.14 0.02-0.18-0.04-0.4-0.08 0.08-0.08 0.32 0.04 0.4 0.08zm0.62 0c-0.06 0.08-0.1-0.08 0 0zm-0.3 0.02c0.08-0.06-0.06 0.08 0 0zm-0.24 0c0.02 0.02 0.08 0 0.06 0.08-0.04 0-0.08-0.02-0.06-0.08zm-0.18 0.14c-0.16 0-0.26-0.06-0.38-0.08 0.1-0.06 0.28 0.02 0.38 0.08zm0.34-0.06c0.06 0 0.1 0.02 0.1 0.1-0.06-0.02-0.12-0.02-0.1-0.1zm-3.6 0.04c0.02 0.02 0 0 0 0zm3.4 0c0.04-0.1 0.04 0.1 0 0zm0.46 0c0-0.02 0.04-0.02 0.06-0.02-0.02 0.02-0.04 0.02-0.06 0.02zm-0.6 0.02c0 0.04 0.02 0 0 0zm-5.48 0.06c0.02 0-0.02-0.02 0 0zm6.06 0.14c0-0.02 0.02-0.02 0.04-0.02 0 0.02-0.02 0.02-0.04 0.02zm0.1 0c0.02-0.08 0.06 0.1 0 0zm0.82 0.26c-0.08 0 0.02-0.1 0 0zm1.12 3.56v0.08c-0.06 0-0.04-0.06 0-0.08zm-0.16 0.46c0.06 0.04-0.04 0.12-0.04 0.18-0.08-0.06 0.04-0.14 0.04-0.18zm-9.52 0.24c0.02-0.1 0.02 0.08 0 0zm8.82 0.74c0.08-0.06-0.06 0.08 0 0zm0.12 0.02s0-0.02 0.02-0.02c0 0.02 0 0.04-0.02 0.02zm-0.2 0.08c0.04-0.1 0.04 0.1 0 0zm-8.74 0.54c0-0.04 0.04-0.04 0.04 0-0.02 0.02-0.02-0.02-0.04 0zm0.26 0.14c0.02-0.1 0.02 0.08 0 0zm-0.24 0.16c0.02-0.1 0.02 0.1 0 0zm-0.02 0.64c0.02-0.1 0.02 0.08 0 0zm7.36 0.12h0.06c0.02 0.08-0.06 0.06-0.12 0.08-0.02-0.08 0.08-0.02 0.06-0.08zm-5.34 0.18c0.02 0.02-0.02 0 0 0zm4.84 0.3c0.02 0.04-0.04 0.04-0.06 0.04-0.02 0.06 0.04 0.06 0 0.1-0.08-0.02-0.1-0.04-0.1 0.04-0.06-0.04-0.08 0.02-0.12-0.02 0.02-0.06 0-0.16 0.1-0.16-0.02 0.02-0.04 0.04-0.04 0.1 0.06-0.06 0.14-0.08 0.22-0.1zm-0.4 0.18c0.02-0.06 0.06 0.04 0.12 0-0.06 0.22-0.36 0.28-0.44 0.4-0.14 0.04 0-0.2 0.08-0.2 0.02 0.08 0.28-0.12 0.24-0.2zm-0.08 0.04c0-0.04 0.06-0.04 0.06 0-0.02 0.02-0.04-0.02-0.06 0zm-0.14 0.12c0.02-0.1 0.02 0.08 0 0zm-4.56 0.16c0.02-0.1 0.02 0.1 0 0zm-1.5 0.28c-0.08-0.06 0.02-0.14 0-0.24 0.04 0.04 0.04 0.22 0 0.24zm5.74-0.24c0.08 0 0.1 0.06 0.14 0.08-0.14 0.1-0.3 0.32-0.5 0.32 0.04-0.08 0.14-0.04 0.08-0.16 0.04 0.04 0.1 0.04 0.1-0.04 0.1 0.04 0.16-0.08 0.18-0.2zm-0.14 0.16c0.02-0.02 0.04-0.02 0.04-0.04-0.02 0.02-0.04 0-0.04 0.04zm-0.26 0.24c-0.02 0.06-0.08 0.04-0.08 0.12-0.1 0.02-0.16 0.04-0.14 0.16-0.06 0-0.1-0.04-0.12 0.04-0.04-0.02-0.02-0.06-0.06-0.06 0 0.06-0.14 0.16-0.14 0.02 0.1 0.02 0.16-0.1 0.08-0.12 0.04-0.04 0.2-0.02 0.18 0.06 0.04-0.08 0.08-0.14 0.14-0.18 0-0.04-0.08 0-0.1-0.02 0-0.12 0.14-0.02 0.24-0.02zm-5.38 0.08c0.12 0.04 0 0.24 0.02 0.36-0.1-0.08-0.06-0.26-0.02-0.36zm4.8 0.16c-0.02 0.06-0.04 0.08 0.02 0.12-0.06 0.06-0.14-0.04-0.14-0.1 0.02-0.02 0.06-0.02 0.12-0.02zm-5.08 0.04c0.04-0.08 0.04 0.1 0 0zm4.84 0.1c0.08 0.02 0.12 0.08 0.16 0.08-0.04 0.16-0.28 0.12-0.34 0.28-0.1 0-0.08 0.06-0.18 0.02 0.1-0.16 0.22-0.16 0.42-0.26 0.02-0.08-0.1-0.02-0.06-0.12zm-0.32 0.2c0.02 0.1-0.06 0.1-0.14 0.12 0.02-0.08 0.08-0.1 0.14-0.12zm-0.62 0.4c-0.02 0.06-0.08 0.08-0.14 0.08 0.02-0.06 0.04-0.08 0.14-0.08zm-0.5 0.24c0-0.02 0.04-0.02 0.06-0.02 0 0.02-0.04 0.02-0.06 0.02zm-0.2 0.66c0 0.02-0.02-0.02 0 0zm0.38 0.14c-0.04 0-0.08 0-0.08-0.04h0.06s0 0.02 0.02 0.02v0.02zm-1.94 0c0.06-0.1 0.04 0.08 0 0zm1.94 0c0.1 0 0 0.1 0 0zm0.46 0.12c0-0.02 0.04-0.02 0.04 0 0 0.04-0.02 0-0.04 0zm0.2 0.06c-0.02 0.02-0.04 0.04-0.08 0.04-0.02-0.06 0.04-0.04 0.08-0.04zm0.02 0.02c0-0.02 0.02-0.02 0.04-0.02 0 0.02-0.02 0-0.04 0.02zm0.28 0.16h0.04v0.06h-0.04v-0.06zm0.18 0.1c-0.04 0-0.1-0.02-0.1 0.02-0.08-0.06 0.1-0.14 0.1-0.02zm-0.36 0c0-0.04 0.04-0.02 0.04 0-0.02 0.04-0.02 0-0.04 0zm0.46 0.12c0 0.02-0.02-0.02 0 0zm0.14 0.04c0-0.02 0.02-0.02 0.04-0.02 0 0.02-0.02 0.02-0.04 0.02zm0.16 0.14c0.04-0.1 0.04 0.08 0 0zm0.2 0.02c0.02 0.08-0.04 0.06-0.06 0.12-0.06 0-0.04-0.16 0.06-0.12zm0.2 0.3c0.06-0.06 0.18 0.04 0.16 0.16-0.06-0.06-0.1-0.12-0.16-0.16zm-4.78 0.08c0 0.02-0.02-0.02 0 0zm5.16 0.24c-0.08 0.02-0.04-0.1-0.12-0.08 0.02-0.1 0.12 0 0.12 0.08zm-6.26 0.02c-0.02-0.02-0.04-0.04-0.04-0.1 0.04 0.02 0.04 0.04 0.04 0.1zm6.32 0c0.04 0 0.06 0.04 0.06 0.1-0.04-0.02-0.1-0.06-0.06-0.1zm0.36 0.34c-0.1-0.04-0.18-0.1-0.24-0.22 0.14 0.04 0.18 0.16 0.24 0.22zm0 0c0.04 0 0.06 0.02 0.06 0.08h-0.06v-0.08zm-5.8 0.06c0.08-0.06-0.06 0.08 0 0zm5.88 0.06c0.02 0.02 0 0 0 0zm0.06 0.08c0.06-0.06 0.2 0.14 0.16 0.22-0.1-0.04-0.06-0.2-0.16-0.22zm0.24 0.26c0.06 0.02 0.04 0.12 0.14 0.12 0 0.06-0.04 0.08-0.1 0.08 0.06-0.08-0.1-0.08-0.04-0.2zm0.16 0.2c0.06 0.1 0.12 0.14 0.12 0.26-0.14-0.02-0.1-0.16-0.12-0.26zm0.28 0.24c0.02 0.02 0-0.02 0 0zm-7 0.36c0.08-0.06-0.04 0.08 0 0zm7.1 0.12c-0.06 0 0-0.1 0 0zm0 0c0.04 0-0.02 0.1 0 0zm0.16 0.54h-0.08c0-0.04 0.04-0.06 0.06-0.08 0.02 0 0.02 0.04 0.02 0.08zm0 0c0.08 0 0 0.1 0 0zm-7.54 0.3c0.02 0.02 0 0 0 0zm12.6-6.12c-0.06 0.34 0 0.56-0.32 0.74-0.24 0.6-0.82 0.88-1.26 1.28-0.38 0.08-0.84 0.34-1.2 0.08-0.22 0.3-0.24 0.66-0.34 1.1 0.82 0.58 2.02-0.18 2.86-0.44 0.46-0.26 0.96-0.52 1.48-0.74 0.06-0.08 0.18-0.1 0.24-0.16 0.06 0.18-0.36 0.28-0.5 0.42 0 0.04 0.04 0.02 0.08 0.02-0.56 0.5-1.18 0.8-1.92 1.06 0.14 0 0.44 0 0.62-0.1-0.02 0.1-0.1 0.12-0.18 0.16 0 0.04 0.12-0.02 0.08 0.06-0.24 0.08-0.46 0.32-0.58 0.24-0.1 0.04-0.02 0.08-0.06 0.14-0.54 0.24-0.9 0.4-1.6 0.4-0.96-0.2-1.08-1.14-0.96-2 0.36-1.1 1.14-2.32 2.24-2.86 0.2-0.1 0.44-0.06 0.64-0.06 0.16 0.02 0.2 0.14 0.34 0.16 0.04 0.24 0.2 0.36 0.34 0.5zm-1.56 0.36c0.08 0.02 0.14-0.14 0.2-0.06-0.34 0.26-0.64 0.54-0.9 0.88 0.66-0.34 1.26-0.74 1.64-1.34-0.34 0.14-0.74 0.24-0.94 0.52zm-0.12 0.08c0.02 0.02 0-0.02 0 0zm-0.16 3.1c0.06 0.02 0.14-0.04 0.12 0.12 0.1-0.06 0.16-0.1 0.26 0 0.04-0.04-0.04-0.12 0.04-0.12 0.14 0 0.38-0.1 0.5-0.18-0.3 0.16-0.68 0.06-0.92 0.18zm3.38-1.72c0.04 0 0-0.02 0 0zm0 0c0 0.04-0.04 0.02 0 0zm-1.86 1.56c0.04-0.08 0.04 0.1 0 0zm6.08-3.42c-0.38 0.34-0.4 1.04-0.74 1.26-0.16 0.38-0.22 0.84-0.5 1.04-0.22 1-0.92 1.86-1.2 2.8-0.34 0.38-0.78 0.98-1.42 0.7-0.3-0.32-0.6-0.78-0.44-1.42 0.02-0.08 0-0.16-0.02-0.22 0.1-0.48 0.2-1 0.22-1.5 0.22-0.8 0.2-1.74 0.32-2.5 0.38 0 0.54 0.3 0.66 0.48-0.16 0.36-0.06 0.92-0.02 1.42-0.18 0.68-0.2 1.62-0.32 2.46 0.94-1.28 1.4-3.04 2.36-4.32 0.14-0.58 0.56-1.1 1-1.52 0.26-0.02 0.42 0.08 0.58 0.16 0 0.56-0.32 0.76-0.48 1.16zm0.06-1.02c-0.06 0.08 0.08-0.06 0 0zm0.08 0.02c0.04 0 0.1 0.02 0.08-0.04h-0.04c0 0.02-0.02 0.04-0.04 0.04zm-0.54 0.08h0.04v-0.04h-0.04v0.04zm-0.54 1.84c-0.06 0-0.22-0.06-0.2 0.06 0.06 0.04 0.12-0.06 0.14 0-0.32 0.16-0.56 0.68-0.6 0.98 0.04-0.02 0.04-0.08 0.12-0.1 0.04 0.12-0.14 0.18-0.02 0.2 0.18-0.38 0.38-0.74 0.56-1.14 0.16-0.12 0.16-0.4 0.34-0.5-0.02 0.02-0.06 0.12 0.02 0.1-0.08-0.26 0.16-0.4 0.22-0.64-0.02-0.02-0.06-0.02-0.06-0.06 0.02-0.02 0-0.12 0.08-0.12 0 0.04 0 0.1 0.04 0.1 0.02-0.04 0.1-0.06 0.08-0.16h0.04c0.04-0.06 0.1-0.1 0.12-0.18-0.04 0-0.1 0.02-0.1-0.02s0.02-0.08 0.04-0.1c0.04 0.02 0.02 0.1 0.1 0.08 0.02-0.1-0.06-0.08-0.08-0.14 0.06-0.08 0.16-0.12 0.2-0.2-0.1 0-0.08 0.1-0.16 0.1 0-0.04 0-0.08-0.04-0.08-0.08 0.16-0.3 0.26-0.24 0.48-0.02 0.04-0.1 0.02-0.14 0.06 0.06 0.26-0.24 0.3-0.18 0.5-0.18 0.2-0.32 0.46-0.42 0.74 0.08 0 0.08-0.1 0.14-0.1v0.14zm1.08-1.74c0.02 0.02 0-0.02 0 0zm-0.12 0.12c-0.02 0.02 0 0.02 0 0 0.04-0.02 0-0.04 0 0zm-0.6 0.16v0.06h0.06c0.02-0.04 0.02-0.06-0.02-0.08-0.02 0.02-0.02 0.04-0.04 0.02zm-0.06 0.1c0.02 0.1 0.02-0.1 0 0zm-0.06 0.16c0.02 0.02 0 0 0 0zm-0.08 0.08c0 0.02-0.02 0 0 0zm-0.18 0.5c0.04-0.06 0.06-0.16 0.08-0.26-0.04 0-0.04-0.02-0.08-0.02 0.08 0.1-0.12 0.22 0 0.28zm-0.18 0.02c0.04 0.1 0 0.2-0.06 0.24 0.14 0.06 0.2-0.22 0.1-0.26 0 0.02-0.02 0.04-0.04 0.02zm-0.32 0.78c-0.12 0.12-0.22 0.36-0.22 0.52 0.1-0.14 0.18-0.32 0.22-0.52h0.1c0-0.22 0.16-0.3 0.18-0.5-0.22 0.08-0.14 0.34-0.28 0.5zm0.52-0.06c0.02 0.02 0 0 0 0zm-0.84 0.76c0.06 0.02 0.1-0.1 0.06-0.12-0.02 0.04-0.08 0.04-0.06 0.12zm-0.14 0.28c0.04-0.06 0.14-0.18 0.1-0.24-0.04 0.06-0.14 0.18-0.1 0.24zm-0.12 0.74h-0.02c-0.04 0.1-0.12 0.18-0.12 0.32h-0.02c-0.02 0.02-0.04 0.06-0.02 0.12 0.08 0.02 0.02-0.08 0.04-0.12 0.06-0.1 0.14-0.16 0.14-0.32 0.04 0 0.02-0.08 0.08-0.06 0.04 0.08-0.02 0.14 0.02 0.18 0.12-0.26 0.34-0.56 0.36-0.84-0.1 0.1 0.02-0.1-0.04-0.12-0.14 0.3-0.34 0.5-0.42 0.84zm0.48-0.42c0.02-0.02 0.06-0.1 0-0.1 0 0.02-0.06 0.1 0 0.1zm-0.52-0.04c0.02 0.02-0.02 0 0 0zm0.28 0.4v0.04h0.06c0-0.02 0-0.02 0.02-0.02v-0.06h-0.06c0 0.02 0 0.04-0.02 0.04zm-0.34 0.5c0.1 0 0.14-0.16 0.1-0.22-0.04 0.06-0.06 0.16-0.1 0.22zm1.92-3.62c-0.08-0.04-0.04 0.08-0.12 0.06 0.04-0.08 0.04-0.2 0.16-0.24 0 0.02 0.02 0.04 0.02 0.06-0.02 0.04-0.08 0.04-0.06 0.12zm-0.28 0.24c0.04 0 0.04 0.02 0.1 0.02-0.04 0.04-0.06 0.12-0.12 0.14 0.02-0.08 0-0.12 0.02-0.16zm0.5 0.12c0.02 0.02 0.04 0 0 0zm-0.6 0.08c0.08-0.02 0.04 0.08 0.02 0.1-0.02 0-0.02-0.06-0.02-0.1zm-0.12 0.18h0.06v0.1h-0.06v-0.1zm-0.12 0.24c0.06 0.02 0.04 0.18-0.04 0.14-0.04-0.08 0.06-0.06 0.04-0.14zm-0.06 0.24c0.02-0.02-0.02-0.04 0 0zm0 0c-0.04 0.02 0 0.02 0 0zm0.44 0.12c0.04 0.02 0.02 0.04 0 0.06-0.04 0 0-0.04 0-0.06zm-0.8 0.48c0.06 0 0.04 0.12-0.04 0.12 0-0.06 0.02-0.1 0.04-0.12zm-0.1 0.14c0.1 0 0.06 0.16-0.02 0.14-0.02-0.06-0.02-0.1 0.02-0.14zm-0.1 0.26c0.06-0.08 0.04 0.08 0 0zm-0.24 0.46c0.1 0.02-0.02 0.24-0.1 0.24 0.04-0.08 0.08-0.16 0.1-0.24zm-0.1 0.32c0 0.08-0.08 0.08-0.1 0.16-0.04-0.04 0-0.2 0.1-0.16zm6.96-2.52c-0.38 0.34-0.4 1.04-0.74 1.26-0.16 0.38-0.22 0.84-0.5 1.04-0.22 1-0.92 1.86-1.2 2.8-0.34 0.38-0.78 0.98-1.42 0.7-0.3-0.32-0.6-0.78-0.44-1.42 0.02-0.08 0-0.16-0.02-0.22 0.1-0.48 0.2-1 0.22-1.5 0.22-0.8 0.2-1.74 0.32-2.5 0.38 0 0.54 0.3 0.66 0.48-0.16 0.36-0.06 0.92-0.02 1.42-0.18 0.68-0.2 1.62-0.32 2.46 0.94-1.28 1.4-3.04 2.36-4.32 0.14-0.58 0.56-1.1 1-1.52 0.26-0.02 0.42 0.08 0.58 0.16 0 0.56-0.32 0.76-0.48 1.16zm0.06-1.02c-0.06 0.08 0.08-0.06 0 0zm0.08 0.02c0.04 0 0.1 0.02 0.08-0.04h-0.04c0 0.02-0.02 0.04-0.04 0.04zm-0.54 0.08h0.04v-0.04h-0.04v0.04zm-0.54 1.84c-0.06 0-0.22-0.06-0.2 0.06 0.06 0.04 0.12-0.06 0.14 0-0.32 0.16-0.56 0.68-0.6 0.98 0.04-0.02 0.04-0.08 0.12-0.1 0.04 0.12-0.14 0.18-0.02 0.2 0.18-0.38 0.38-0.74 0.56-1.14 0.16-0.12 0.16-0.4 0.34-0.5-0.02 0.02-0.06 0.12 0.02 0.1-0.08-0.26 0.16-0.4 0.22-0.64-0.02-0.02-0.06-0.02-0.06-0.06 0.02-0.02 0-0.12 0.08-0.12 0 0.04 0 0.1 0.04 0.1 0.02-0.04 0.1-0.06 0.08-0.16h0.04c0.04-0.06 0.1-0.1 0.12-0.18-0.04 0-0.1 0.02-0.1-0.02s0.02-0.08 0.04-0.1c0.04 0.02 0.02 0.1 0.1 0.08 0.02-0.1-0.06-0.08-0.08-0.14 0.06-0.08 0.16-0.12 0.2-0.2-0.1 0-0.08 0.1-0.16 0.1 0-0.04 0-0.08-0.04-0.08-0.08 0.16-0.3 0.26-0.24 0.48-0.02 0.04-0.1 0.02-0.14 0.06 0.06 0.26-0.24 0.3-0.18 0.5-0.18 0.2-0.32 0.46-0.42 0.74 0.08 0 0.08-0.1 0.14-0.1v0.14zm1.08-1.74c0.02 0.02 0-0.02 0 0zm-0.12 0.12c-0.02 0.02 0 0.02 0 0 0.04-0.02 0-0.04 0 0zm-0.6 0.16v0.06h0.06c0.02-0.04 0.02-0.06-0.02-0.08-0.02 0.02-0.02 0.04-0.04 0.02zm-0.06 0.1c0.02 0.1 0.02-0.1 0 0zm-0.06 0.16c0.02 0.02 0 0 0 0zm-0.08 0.08c0 0.02-0.02 0 0 0zm-0.18 0.5c0.04-0.06 0.06-0.16 0.08-0.26-0.04 0-0.04-0.02-0.08-0.02 0.08 0.1-0.12 0.22 0 0.28zm-0.18 0.02c0.04 0.1 0 0.2-0.06 0.24 0.14 0.06 0.2-0.22 0.1-0.26 0 0.02-0.02 0.04-0.04 0.02zm-0.32 0.78c-0.12 0.12-0.22 0.36-0.22 0.52 0.1-0.14 0.18-0.32 0.22-0.52h0.1c0-0.22 0.16-0.3 0.18-0.5-0.22 0.08-0.14 0.34-0.28 0.5zm0.52-0.06c0.02 0.02 0 0 0 0zm-0.84 0.76c0.06 0.02 0.1-0.1 0.06-0.12-0.02 0.04-0.08 0.04-0.06 0.12zm-0.14 0.28c0.04-0.06 0.14-0.18 0.1-0.24-0.04 0.06-0.14 0.18-0.1 0.24zm-0.12 0.74h-0.02c-0.04 0.1-0.12 0.18-0.12 0.32h-0.02c-0.02 0.02-0.04 0.06-0.02 0.12 0.08 0.02 0.02-0.08 0.04-0.12 0.06-0.1 0.14-0.16 0.14-0.32 0.04 0 0.02-0.08 0.08-0.06 0.04 0.08-0.02 0.14 0.02 0.18 0.12-0.26 0.34-0.56 0.36-0.84-0.1 0.1 0.02-0.1-0.04-0.12-0.14 0.3-0.34 0.5-0.42 0.84zm0.48-0.42c0.02-0.02 0.06-0.1 0-0.1 0 0.02-0.06 0.1 0 0.1zm-0.52-0.04c0.02 0.02-0.02 0 0 0zm0.28 0.4v0.04h0.06c0-0.02 0-0.02 0.02-0.02v-0.06h-0.06c0 0.02 0 0.04-0.02 0.04zm-0.34 0.5c0.1 0 0.14-0.16 0.1-0.22-0.04 0.06-0.06 0.16-0.1 0.22zm1.92-3.62c-0.08-0.04-0.04 0.08-0.12 0.06 0.04-0.08 0.04-0.2 0.16-0.24 0 0.02 0.02 0.04 0.02 0.06-0.02 0.04-0.08 0.04-0.06 0.12zm-0.28 0.24c0.04 0 0.04 0.02 0.1 0.02-0.04 0.04-0.06 0.12-0.12 0.14 0.02-0.08 0-0.12 0.02-0.16zm0.5 0.12c0.02 0.02 0.04 0 0 0zm-0.6 0.08c0.08-0.02 0.04 0.08 0.02 0.1-0.02 0-0.02-0.06-0.02-0.1zm-0.12 0.18h0.06v0.1h-0.06v-0.1zm-0.12 0.24c0.06 0.02 0.04 0.18-0.04 0.14-0.04-0.08 0.06-0.06 0.04-0.14zm-0.06 0.24c0.02-0.02-0.02-0.04 0 0zm0 0c-0.04 0.02 0 0.02 0 0zm0.44 0.12c0.04 0.02 0.02 0.04 0 0.06-0.04 0 0-0.04 0-0.06zm-0.8 0.48c0.06 0 0.04 0.12-0.04 0.12 0-0.06 0.02-0.1 0.04-0.12zm-0.1 0.14c0.1 0 0.06 0.16-0.02 0.14-0.02-0.06-0.02-0.1 0.02-0.14zm-0.1 0.26c0.06-0.08 0.04 0.08 0 0zm-0.24 0.46c0.1 0.02-0.02 0.24-0.1 0.24 0.04-0.08 0.08-0.16 0.1-0.24zm-0.1 0.32c0 0.08-0.08 0.08-0.1 0.16-0.04-0.04 0-0.2 0.1-0.16zm6.96-2.52c-0.38 0.34-0.4 1.04-0.74 1.26-0.16 0.38-0.22 0.84-0.5 1.04-0.22 1-0.92 1.86-1.2 2.8-0.34 0.38-0.78 0.98-1.42 0.7-0.3-0.32-0.6-0.78-0.44-1.42 0.02-0.08 0-0.16-0.02-0.22 0.1-0.48 0.2-1 0.22-1.5 0.22-0.8 0.2-1.74 0.32-2.5 0.38 0 0.54 0.3 0.66 0.48-0.16 0.36-0.06 0.92-0.02 1.42-0.18 0.68-0.2 1.62-0.32 2.46 0.94-1.28 1.4-3.04 2.36-4.32 0.14-0.58 0.56-1.1 1-1.52 0.26-0.02 0.42 0.08 0.58 0.16 0 0.56-0.32 0.76-0.48 1.16zm0.06-1.02c-0.06 0.08 0.08-0.06 0 0zm0.08 0.02c0.04 0 0.1 0.02 0.08-0.04h-0.04c0 0.02-0.02 0.04-0.04 0.04zm-0.54 0.08h0.04v-0.04h-0.04v0.04zm-0.54 1.84c-0.06 0-0.22-0.06-0.2 0.06 0.06 0.04 0.12-0.06 0.14 0-0.32 0.16-0.56 0.68-0.6 0.98 0.04-0.02 0.04-0.08 0.12-0.1 0.04 0.12-0.14 0.18-0.02 0.2 0.18-0.38 0.38-0.74 0.56-1.14 0.16-0.12 0.16-0.4 0.34-0.5-0.02 0.02-0.06 0.12 0.02 0.1-0.08-0.26 0.16-0.4 0.22-0.64-0.02-0.02-0.06-0.02-0.06-0.06 0.02-0.02 0-0.12 0.08-0.12 0 0.04 0 0.1 0.04 0.1 0.02-0.04 0.1-0.06 0.08-0.16h0.04c0.04-0.06 0.1-0.1 0.12-0.18-0.04 0-0.1 0.02-0.1-0.02s0.02-0.08 0.04-0.1c0.04 0.02 0.02 0.1 0.1 0.08 0.02-0.1-0.06-0.08-0.08-0.14 0.06-0.08 0.16-0.12 0.2-0.2-0.1 0-0.08 0.1-0.16 0.1 0-0.04 0-0.08-0.04-0.08-0.08 0.16-0.3 0.26-0.24 0.48-0.02 0.04-0.1 0.02-0.14 0.06 0.06 0.26-0.24 0.3-0.18 0.5-0.18 0.2-0.32 0.46-0.42 0.74 0.08 0 0.08-0.1 0.14-0.1v0.14zm1.08-1.74c0.02 0.02 0-0.02 0 0zm-0.12 0.12c-0.02 0.02 0 0.02 0 0 0.04-0.02 0-0.04 0 0zm-0.6 0.16v0.06h0.06c0.02-0.04 0.02-0.06-0.02-0.08-0.02 0.02-0.02 0.04-0.04 0.02zm-0.06 0.1c0.02 0.1 0.02-0.1 0 0zm-0.06 0.16c0.02 0.02 0 0 0 0zm-0.08 0.08c0 0.02-0.02 0 0 0zm-0.18 0.5c0.04-0.06 0.06-0.16 0.08-0.26-0.04 0-0.04-0.02-0.08-0.02 0.08 0.1-0.12 0.22 0 0.28zm-0.18 0.02c0.04 0.1 0 0.2-0.06 0.24 0.14 0.06 0.2-0.22 0.1-0.26 0 0.02-0.02 0.04-0.04 0.02zm-0.32 0.78c-0.12 0.12-0.22 0.36-0.22 0.52 0.1-0.14 0.18-0.32 0.22-0.52h0.1c0-0.22 0.16-0.3 0.18-0.5-0.22 0.08-0.14 0.34-0.28 0.5zm0.52-0.06c0.02 0.02 0 0 0 0zm-0.84 0.76c0.06 0.02 0.1-0.1 0.06-0.12-0.02 0.04-0.08 0.04-0.06 0.12zm-0.14 0.28c0.04-0.06 0.14-0.18 0.1-0.24-0.04 0.06-0.14 0.18-0.1 0.24zm-0.12 0.74h-0.02c-0.04 0.1-0.12 0.18-0.12 0.32h-0.02c-0.02 0.02-0.04 0.06-0.02 0.12 0.08 0.02 0.02-0.08 0.04-0.12 0.06-0.1 0.14-0.16 0.14-0.32 0.04 0 0.02-0.08 0.08-0.06 0.04 0.08-0.02 0.14 0.02 0.18 0.12-0.26 0.34-0.56 0.36-0.84-0.1 0.1 0.02-0.1-0.04-0.12-0.14 0.3-0.34 0.5-0.42 0.84zm0.48-0.42c0.02-0.02 0.06-0.1 0-0.1 0 0.02-0.06 0.1 0 0.1zm-0.52-0.04c0.02 0.02-0.02 0 0 0zm0.28 0.4v0.04h0.06c0-0.02 0-0.02 0.02-0.02v-0.06h-0.06c0 0.02 0 0.04-0.02 0.04zm-0.34 0.5c0.1 0 0.14-0.16 0.1-0.22-0.04 0.06-0.06 0.16-0.1 0.22zm1.92-3.62c-0.08-0.04-0.04 0.08-0.12 0.06 0.04-0.08 0.04-0.2 0.16-0.24 0 0.02 0.02 0.04 0.02 0.06-0.02 0.04-0.08 0.04-0.06 0.12zm-0.28 0.24c0.04 0 0.04 0.02 0.1 0.02-0.04 0.04-0.06 0.12-0.12 0.14 0.02-0.08 0-0.12 0.02-0.16zm0.5 0.12c0.02 0.02 0.04 0 0 0zm-0.6 0.08c0.08-0.02 0.04 0.08 0.02 0.1-0.02 0-0.02-0.06-0.02-0.1zm-0.12 0.18h0.06v0.1h-0.06v-0.1zm-0.12 0.24c0.06 0.02 0.04 0.18-0.04 0.14-0.04-0.08 0.06-0.06 0.04-0.14zm-0.06 0.24c0.02-0.02-0.02-0.04 0 0zm0 0c-0.04 0.02 0 0.02 0 0zm0.44 0.12c0.04 0.02 0.02 0.04 0 0.06-0.04 0 0-0.04 0-0.06zm-0.8 0.48c0.06 0 0.04 0.12-0.04 0.12 0-0.06 0.02-0.1 0.04-0.12zm-0.1 0.14c0.1 0 0.06 0.16-0.02 0.14-0.02-0.06-0.02-0.1 0.02-0.14zm-0.1 0.26c0.06-0.08 0.04 0.08 0 0zm-0.24 0.46c0.1 0.02-0.02 0.24-0.1 0.24 0.04-0.08 0.08-0.16 0.1-0.24zm-0.1 0.32c0 0.08-0.08 0.08-0.1 0.16-0.04-0.04 0-0.2 0.1-0.16z"></path>
</g>
</svg>
