<?xml version="1.0" encoding="utf-8"?>
<svg viewBox="168.118 126.307 235.191 229.965" xmlns="http://www.w3.org/2000/svg">
  <defs>
    <linearGradient gradientUnits="userSpaceOnUse" x1="32" y1="2" x2="32" y2="62" id="gradient-24">
      <stop stop-color="#0df" style="--darkreader-inline-stopcolor:#00b1cc" data-darkreader-inline-stopcolor="" offset="0"/>
      <stop stop-color="#ff00d4" style="--darkreader-inline-stopcolor:#cc00aa" data-darkreader-inline-stopcolor="" offset="1"/>
    </linearGradient>
    <linearGradient gradientUnits="userSpaceOnUse" x1="32" y1="6" x2="32" y2="58" id="gradient-25">
      <stop stop-color="#0df" style="--darkreader-inline-stopcolor:#00b1cc" data-darkreader-inline-stopcolor="" offset="0"/>
      <stop stop-color="#ff00d4" style="--darkreader-inline-stopcolor:#cc00aa" data-darkreader-inline-stopcolor="" offset="1"/>
    </linearGradient>
    <linearGradient gradientUnits="userSpaceOnUse" x1="11" y1="31" x2="11" y2="33" id="gradient-26">
      <stop stop-color="#0df" style="--darkreader-inline-stopcolor:#00b1cc" data-darkreader-inline-stopcolor="" offset="0"/>
      <stop stop-color="#ff00d4" style="--darkreader-inline-stopcolor:#cc00aa" data-darkreader-inline-stopcolor="" offset="1"/>
    </linearGradient>
    <linearGradient gradientUnits="userSpaceOnUse" x1="53" y1="31" x2="53" y2="33" id="gradient-27">
      <stop stop-color="#0df" style="--darkreader-inline-stopcolor:#00b1cc" data-darkreader-inline-stopcolor="" offset="0"/>
      <stop stop-color="#ff00d4" style="--darkreader-inline-stopcolor:#cc00aa" data-darkreader-inline-stopcolor="" offset="1"/>
    </linearGradient>
    <linearGradient gradientUnits="userSpaceOnUse" x1="13.813" y1="41.5" x2="13.813" y2="43.5" id="gradient-28">
      <stop stop-color="#0df" style="--darkreader-inline-stopcolor:#00b1cc" data-darkreader-inline-stopcolor="" offset="0"/>
      <stop stop-color="#ff00d4" style="--darkreader-inline-stopcolor:#cc00aa" data-darkreader-inline-stopcolor="" offset="1"/>
    </linearGradient>
    <linearGradient gradientUnits="userSpaceOnUse" x1="50.187" y1="20.5" x2="50.187" y2="22.5" id="gradient-29">
      <stop stop-color="#0df" style="--darkreader-inline-stopcolor:#00b1cc" data-darkreader-inline-stopcolor="" offset="0"/>
      <stop stop-color="#ff00d4" style="--darkreader-inline-stopcolor:#cc00aa" data-darkreader-inline-stopcolor="" offset="1"/>
    </linearGradient>
    <linearGradient gradientUnits="userSpaceOnUse" x1="13.813" y1="19.5" x2="13.813" y2="23.501" id="gradient-30">
      <stop stop-color="#0df" style="--darkreader-inline-stopcolor:#00b1cc" data-darkreader-inline-stopcolor="" offset="0"/>
      <stop stop-color="#ff00d4" style="--darkreader-inline-stopcolor:#cc00aa" data-darkreader-inline-stopcolor="" offset="1"/>
    </linearGradient>
    <linearGradient gradientUnits="userSpaceOnUse" x1="50.186" y1="40.5" x2="50.186" y2="44.501" id="gradient-31">
      <stop stop-color="#0df" style="--darkreader-inline-stopcolor:#00b1cc" data-darkreader-inline-stopcolor="" offset="0"/>
      <stop stop-color="#ff00d4" style="--darkreader-inline-stopcolor:#cc00aa" data-darkreader-inline-stopcolor="" offset="1"/>
    </linearGradient>
    <linearGradient gradientUnits="userSpaceOnUse" x1="21.5" y1="11.813" x2="21.5" y2="15.814" id="gradient-32">
      <stop stop-color="#0df" style="--darkreader-inline-stopcolor:#00b1cc" data-darkreader-inline-stopcolor="" offset="0"/>
      <stop stop-color="#ff00d4" style="--darkreader-inline-stopcolor:#cc00aa" data-darkreader-inline-stopcolor="" offset="1"/>
    </linearGradient>
    <linearGradient gradientUnits="userSpaceOnUse" x1="32" y1="9" x2="32" y2="13" id="gradient-33">
      <stop stop-color="#0df" style="--darkreader-inline-stopcolor:#00b1cc" data-darkreader-inline-stopcolor="" offset="0"/>
      <stop stop-color="#ff00d4" style="--darkreader-inline-stopcolor:#cc00aa" data-darkreader-inline-stopcolor="" offset="1"/>
    </linearGradient>
    <linearGradient gradientUnits="userSpaceOnUse" x1="42.5" y1="12.813" x2="42.5" y2="14.813" id="gradient-34">
      <stop stop-color="#0df" style="--darkreader-inline-stopcolor:#00b1cc" data-darkreader-inline-stopcolor="" offset="0"/>
      <stop stop-color="#ff00d4" style="--darkreader-inline-stopcolor:#cc00aa" data-darkreader-inline-stopcolor="" offset="1"/>
    </linearGradient>
    <linearGradient gradientUnits="userSpaceOnUse" x1="11.233" y1="24.935" x2="11.233" y2="27.935" id="gradient-35">
      <stop stop-color="#0df" style="--darkreader-inline-stopcolor:#00b1cc" data-darkreader-inline-stopcolor="" offset="0"/>
      <stop stop-color="#ff00d4" style="--darkreader-inline-stopcolor:#cc00aa" data-darkreader-inline-stopcolor="" offset="1"/>
    </linearGradient>
    <linearGradient gradientUnits="userSpaceOnUse" x1="52.767" y1="36.065" x2="52.767" y2="39.065" id="gradient-36">
      <stop stop-color="#0df" style="--darkreader-inline-stopcolor:#00b1cc" data-darkreader-inline-stopcolor="" offset="0"/>
      <stop stop-color="#ff00d4" style="--darkreader-inline-stopcolor:#cc00aa" data-darkreader-inline-stopcolor="" offset="1"/>
    </linearGradient>
    <linearGradient gradientUnits="userSpaceOnUse" x1="16.797" y1="15.297" x2="16.797" y2="18.297" id="gradient-37">
      <stop stop-color="#0df" style="--darkreader-inline-stopcolor:#00b1cc" data-darkreader-inline-stopcolor="" offset="0"/>
      <stop stop-color="#ff00d4" style="--darkreader-inline-stopcolor:#cc00aa" data-darkreader-inline-stopcolor="" offset="1"/>
    </linearGradient>
    <linearGradient gradientUnits="userSpaceOnUse" x1="26.435" y1="9.733" x2="26.435" y2="12.733" id="gradient-38">
      <stop stop-color="#0df" style="--darkreader-inline-stopcolor:#00b1cc" data-darkreader-inline-stopcolor="" offset="0"/>
      <stop stop-color="#ff00d4" style="--darkreader-inline-stopcolor:#cc00aa" data-darkreader-inline-stopcolor="" offset="1"/>
    </linearGradient>
    <linearGradient gradientUnits="userSpaceOnUse" x1="37.565" y1="10.233" x2="37.565" y2="12.233" id="gradient-39">
      <stop stop-color="#0df" style="--darkreader-inline-stopcolor:#00b1cc" data-darkreader-inline-stopcolor="" offset="0"/>
      <stop stop-color="#ff00d4" style="--darkreader-inline-stopcolor:#cc00aa" data-darkreader-inline-stopcolor="" offset="1"/>
    </linearGradient>
    <linearGradient gradientUnits="userSpaceOnUse" x1="47.203" y1="15.797" x2="47.203" y2="17.797" id="gradient-40">
      <stop stop-color="#0df" style="--darkreader-inline-stopcolor:#00b1cc" data-darkreader-inline-stopcolor="" offset="0"/>
      <stop stop-color="#ff00d4" style="--darkreader-inline-stopcolor:#cc00aa" data-darkreader-inline-stopcolor="" offset="1"/>
    </linearGradient>
    <linearGradient gradientUnits="userSpaceOnUse" x1="52.767" y1="25.435" x2="52.767" y2="27.435" id="gradient-41">
      <stop stop-color="#0df" style="--darkreader-inline-stopcolor:#00b1cc" data-darkreader-inline-stopcolor="" offset="0"/>
      <stop stop-color="#ff00d4" style="--darkreader-inline-stopcolor:#cc00aa" data-darkreader-inline-stopcolor="" offset="1"/>
    </linearGradient>
    <linearGradient gradientUnits="userSpaceOnUse" x1="11.233" y1="36.565" x2="11.233" y2="38.565" id="gradient-42">
      <stop stop-color="#0df" style="--darkreader-inline-stopcolor:#00b1cc" data-darkreader-inline-stopcolor="" offset="0"/>
      <stop stop-color="#ff00d4" style="--darkreader-inline-stopcolor:#cc00aa" data-darkreader-inline-stopcolor="" offset="1"/>
    </linearGradient>
    <linearGradient gradientUnits="userSpaceOnUse" x1="32.002" y1="15.009" x2="32.002" y2="40.974" id="gradient-43">
      <stop stop-color="#0df" style="--darkreader-inline-stopcolor:#00b1cc" data-darkreader-inline-stopcolor="" offset="0"/>
      <stop stop-color="#ff00d4" style="--darkreader-inline-stopcolor:#cc00aa" data-darkreader-inline-stopcolor="" offset="1"/>
    </linearGradient>
    <linearGradient gradientUnits="userSpaceOnUse" x1="37.5" y1="28.005" x2="37.5" y2="41" id="gradient-44">
      <stop stop-color="#0df" style="--darkreader-inline-stopcolor:#00b1cc" data-darkreader-inline-stopcolor="" offset="0"/>
      <stop stop-color="#ff00d4" style="--darkreader-inline-stopcolor:#cc00aa" data-darkreader-inline-stopcolor="" offset="1"/>
    </linearGradient>
    <linearGradient gradientUnits="userSpaceOnUse" x1="32" y1="42" x2="32" y2="52" id="gradient-45">
      <stop stop-color="#0df" style="--darkreader-inline-stopcolor:#00b1cc" data-darkreader-inline-stopcolor="" offset="0"/>
      <stop stop-color="#ff00d4" style="--darkreader-inline-stopcolor:#cc00aa" data-darkreader-inline-stopcolor="" offset="1"/>
    </linearGradient>
    <linearGradient gradientUnits="userSpaceOnUse" x1="29" y1="46" x2="29" y2="48" id="gradient-46">
      <stop stop-color="#0df" style="--darkreader-inline-stopcolor:#00b1cc" data-darkreader-inline-stopcolor="" offset="0"/>
      <stop stop-color="#ff00d4" style="--darkreader-inline-stopcolor:#cc00aa" data-darkreader-inline-stopcolor="" offset="1"/>
    </linearGradient>
    <linearGradient gradientUnits="userSpaceOnUse" x1="35" y1="46" x2="35" y2="48" id="gradient-47">
      <stop stop-color="#0df" style="--darkreader-inline-stopcolor:#00b1cc" data-darkreader-inline-stopcolor="" offset="0"/>
      <stop stop-color="#ff00d4" style="--darkreader-inline-stopcolor:#cc00aa" data-darkreader-inline-stopcolor="" offset="1"/>
    </linearGradient>
  </defs>
  <g transform="matrix(3.8668220043182373, 0, 0, 3.79423189163208, 161.97598266601562, 121.6159439086914)" fill="url(#a)" featurekey="odWo6G-0" style="">
    <title xmlns="http://www.w3.org/2000/svg">racing-car-meter-speeding</title>
    <path d="M32,2A30,30,0,1,0,62,32,30.034,30.034,0,0,0,32,2Zm0,58A28,28,0,1,1,60,32,28.032,28.032,0,0,1,32,60Z" xmlns="http://www.w3.org/2000/svg" style="fill-rule: nonzero; paint-order: fill; fill: url(#gradient-24);"/>
    <path d="M32,6A26,26,0,1,0,58,32,26.029,26.029,0,0,0,32,6Zm0,50A24,24,0,1,1,56,32,24.028,24.028,0,0,1,32,56Z" xmlns="http://www.w3.org/2000/svg" style="fill-rule: nonzero; paint-order: fill; fill: url(#gradient-25);"/>
    <rect x="9" y="31" width="4" height="2" xmlns="http://www.w3.org/2000/svg" style="fill-rule: nonzero; paint-order: fill; fill: url(#gradient-26);"/>
    <rect x="51" y="31" width="4" height="2" xmlns="http://www.w3.org/2000/svg" style="fill-rule: nonzero; paint-order: fill; fill: url(#gradient-27);"/>
    <rect transform="translate(-19.397 12.598) rotate(-29.995)" x="11.813" y="41.5" width="4.001" height="2" xmlns="http://www.w3.org/2000/svg" style="fill-rule: nonzero; paint-order: fill; fill: url(#gradient-28);"/>
    <rect transform="translate(-4.027 27.969) rotate(-29.995)" x="48.186" y="20.5" width="4.001" height="2" xmlns="http://www.w3.org/2000/svg" style="fill-rule: nonzero; paint-order: fill; fill: url(#gradient-29);"/>
    <rect transform="translate(-11.713 22.715) rotate(-60.005)" x="12.813" y="19.5" width="2" height="4.001" xmlns="http://www.w3.org/2000/svg" style="fill-rule: nonzero; paint-order: fill; fill: url(#gradient-30);"/>
    <rect transform="translate(-11.711 64.719) rotate(-60.005)" x="49.186" y="40.5" width="2" height="4.001" xmlns="http://www.w3.org/2000/svg" style="fill-rule: nonzero; paint-order: fill; fill: url(#gradient-31);"/>
    <rect transform="translate(-4.026 12.598) rotate(-29.995)" x="20.5" y="11.813" width="2" height="4.001" xmlns="http://www.w3.org/2000/svg" style="fill-rule: nonzero; paint-order: fill; fill: url(#gradient-32);"/>
    <rect x="31" y="9" width="2" height="4" xmlns="http://www.w3.org/2000/svg" style="fill-rule: nonzero; paint-order: fill; fill: url(#gradient-33);"/>
    <rect transform="translate(9.29 43.716) rotate(-60.005)" x="40.5" y="12.813" width="4.001" height="2" xmlns="http://www.w3.org/2000/svg" style="fill-rule: nonzero; paint-order: fill; fill: url(#gradient-34);"/>
    <rect transform="translate(-17.209 30.443) rotate(-75)" x="10.233" y="24.935" width="2" height="3" xmlns="http://www.w3.org/2000/svg" style="fill-rule: nonzero; paint-order: fill; fill: url(#gradient-35);"/>
    <rect transform="translate(2.825 78.812) rotate(-75)" x="51.767" y="36.065" width="2" height="3" xmlns="http://www.w3.org/2000/svg" style="fill-rule: nonzero; paint-order: fill; fill: url(#gradient-36);"/>
    <rect transform="translate(-6.957 16.797) rotate(-45)" x="15.797" y="15.297" width="2" height="3" xmlns="http://www.w3.org/2000/svg" style="fill-rule: nonzero; paint-order: fill; fill: url(#gradient-37);"/>
    <rect transform="translate(-2.007 7.225) rotate(-15)" x="25.435" y="9.733" width="2" height="3" xmlns="http://www.w3.org/2000/svg" style="fill-rule: nonzero; paint-order: fill; fill: url(#gradient-38);"/>
    <rect transform="translate(16.992 44.611) rotate(-75)" x="36.065" y="10.233" width="3" height="2" xmlns="http://www.w3.org/2000/svg" style="fill-rule: nonzero; paint-order: fill; fill: url(#gradient-39);"/>
    <rect transform="translate(1.948 38.297) rotate(-45)" x="45.703" y="15.797" width="3" height="2" xmlns="http://www.w3.org/2000/svg" style="fill-rule: nonzero; paint-order: fill; fill: url(#gradient-40);"/>
    <rect transform="translate(-5.044 14.558) rotate(-15)" x="51.267" y="25.435" width="3" height="2" xmlns="http://www.w3.org/2000/svg" style="fill-rule: nonzero; paint-order: fill; fill: url(#gradient-41);"/>
    <rect transform="translate(-9.34 4.187) rotate(-15)" x="9.733" y="36.565" width="3" height="2" xmlns="http://www.w3.org/2000/svg" style="fill-rule: nonzero; paint-order: fill; fill: url(#gradient-42);"/>
    <path d="M48.465,36.249A17,17,0,1,0,17.275,40.5a1,1,0,0,0,1.731-1,15,15,0,1,1,27.521-3.748,1,1,0,1,0,1.938.5Z" xmlns="http://www.w3.org/2000/svg" style="fill-rule: nonzero; paint-order: fill; fill: url(#gradient-43);"/>
    <path d="M 34.056 26.323 C 34.026 26.305 33.995 26.288 33.963 26.273 C 32.564 23.54 28.73 23.346 27.063 25.924 C 25.402 28.492 27.13 31.897 30.183 32.073 L 45.66 40.941 C 45.769 40.981 45.884 41.001 46 41 C 46.77 41 47.251 40.166 46.866 39.5 C 46.805 39.395 46.726 39.302 46.633 39.226 L 34.056 26.323 Z M 28.423 28.097 C 28.423 26.558 30.09 25.595 31.423 26.365 C 32.756 27.135 32.756 29.059 31.423 29.829 C 31.119 30.005 30.774 30.097 30.423 30.097 C 29.319 30.097 28.423 29.202 28.423 28.097 Z M 33.148 31.009 C 33.701 30.491 34.094 29.826 34.282 29.092 L 42.477 37.803 L 33.148 31.009 Z" xmlns="http://www.w3.org/2000/svg" style="fill-rule: nonzero; paint-order: fill; fill: url(#gradient-44);"/>
    <path d="m36 42h-8a5 5 0 0 0 0 10h8a5 5 0 0 0 0-10zm0 8h-8a3 3 0 0 1 0-6h8a3 3 0 0 1 0 6z" xmlns="http://www.w3.org/2000/svg" style="fill-rule: nonzero; paint-order: fill; fill: url(#gradient-45);"/>
    <path d="m30 46h-2a1 1 0 0 0 0 2h2a1 1 0 0 0 0-2z" xmlns="http://www.w3.org/2000/svg" style="fill-rule: nonzero; paint-order: fill; fill: url(#gradient-46);"/>
    <path d="m36 46h-2a1 1 0 0 0 0 2h2a1 1 0 0 0 0-2z" xmlns="http://www.w3.org/2000/svg" style="fill-rule: nonzero; paint-order: fill; fill: url(#gradient-47);"/>
  </g>
</svg>